<svg xmlns="http://www.w3.org/2000/svg" width="256" height="256" fill="currentColor"><path  d="M215.425 37.333H40.575c-3.688 0-7.226 1.423-9.835 3.956-2.608 2.532-4.073 5.967-4.073 9.548v154.326a13.1 13.1 0 0 0 2.161 7.269 13.68 13.68 0 0 0 5.876 4.971c1.84.829 3.843 1.26 5.871 1.264a14.03 14.03 0 0 0 8.941-3.193l.06-.048 32.953-27.625h132.896c3.689 0 7.226-1.422 9.835-3.955 2.608-2.532 4.073-5.967 4.073-9.548V50.837c0-3.581-1.465-7.016-4.073-9.549s-6.146-3.955-9.835-3.955m1.987 136.965c0 .512-.21 1.002-.582 1.364a2.02 2.02 0 0 1-1.405.565H80.314c-1.43.001-2.812.5-3.894 1.408l-34.593 29.004a2.04 2.04 0 0 1-2.096.248 1.97 1.97 0 0 1-.827-.702 1.9 1.9 0 0 1-.316-1.022V50.837a1.9 1.9 0 0 1 .582-1.364 2.02 2.02 0 0 1 1.405-.565h174.85c.527 0 1.032.203 1.405.565.372.362.582.852.582 1.364z"/><path  d="M122 74.192v40a6.002 6.002 0 0 0 10.243 4.243 6 6 0 0 0 1.757-4.243v-40a6 6 0 1 0-12 0M136.315 155.748a10.001 10.001 0 1 0-16.632-11.11 10.001 10.001 0 0 0 16.632 11.11"/></svg>