<svg xmlns="http://www.w3.org/2000/svg" fill="none" viewBox="0 0 256 256"><path fill="currentColor" d="M36 64h45.5v12H36v41.17c19.75.89 34.15 5.59 44.31 13.07 11.45 8.43 16.83 19.85 18.77 31.35 3.18 18.83-2.75 38.54-6.17 48.18a93.5 93.5 0 0 0 69.87.14c-3.45-9.92-8.95-29.04-5.86-47.32 1.94-11.5 7.32-22.92 18.77-31.35 10.16-7.48 24.56-12.18 44.31-13.07V76h-47.5V64H220V40H36zm184 66.17c-17.86.87-29.58 5.12-37.2 10.73-8.44 6.21-12.51 14.59-14.05 23.7-2.48 14.69 1.73 30.6 4.9 40.03 22.82-12.98 40.86-36.52 46.35-70.65zm-184 3.8c5.46 33.99 23.37 57.47 46.04 70.5 3.2-9.31 7.77-25.74 5.21-40.88-1.54-9.1-5.6-17.48-14.05-23.7-7.62-5.6-19.34-9.85-37.2-10.72zm196 .22q0 .8-.12 1.57c-19.8 123.82-187.96 123.82-207.75 0q-.13-.77-.13-1.57V38a10 10 0 0 1 10-10h188a10 10 0 0 1 10 10z"/></svg>