<svg xmlns="http://www.w3.org/2000/svg" fill="none" viewBox="0 0 256 256"><path fill="currentColor" fill-rule="evenodd" d="M107.36 113.2a6 6 0 0 0-7.86-9.06l3.87 4.52c-3.87-4.52-3.88-4.51-3.88-4.51l-.02.01-.02.03-.07.05-.16.15-.48.47q-.59.56-1.4 1.58a20 20 0 0 0-3.27 5.82 17.5 17.5 0 0 0-.69 9.3c.7 3.53 2.5 7.06 5.56 10.45q.16.18.33.34v.01l.16.16a11 11 0 0 1 2.18 3.5q.55 1.52.27 2.92c-.2.9-.77 2.28-2.6 4a6 6 0 0 0 8.23 8.73c3.33-3.14 5.33-6.6 6.1-10.23.77-3.58.23-6.84-.7-9.44a22 22 0 0 0-5.17-8.15c-1.75-1.99-2.38-3.55-2.59-4.63a5.5 5.5 0 0 1 .23-2.96 8 8 0 0 1 1.98-3.05m49-.01a6 6 0 0 0-7.87-9.06l3.88 4.52c-3.87-4.52-3.88-4.51-3.88-4.51l-.02.01-.02.03-.06.05-.17.15-.48.47q-.59.56-1.4 1.58a20 20 0 0 0-3.27 5.82 17.5 17.5 0 0 0-.69 9.3c.7 3.53 2.5 7.06 5.56 10.45q.16.18.33.34v.01l.16.16q.23.25.65.78c.56.73 1.16 1.68 1.53 2.73q.56 1.5.27 2.91c-.2.9-.77 2.28-2.6 4a6 6 0 0 0 8.23 8.73c3.33-3.14 5.33-6.6 6.1-10.23.77-3.58.23-6.84-.7-9.44a22 22 0 0 0-5.17-8.15c-1.75-1.99-2.38-3.55-2.59-4.63a5.5 5.5 0 0 1 .23-2.96 8 8 0 0 1 1.98-3.05m-24.5-.01a6 6 0 0 0-7.87-9.06l3.88 4.52c-3.87-4.52-3.88-4.51-3.88-4.51l-.02.01-.02.03-.06.05-.17.15-.48.47q-.59.56-1.4 1.58a20 20 0 0 0-3.27 5.82 17.5 17.5 0 0 0-.69 9.3c.7 3.53 2.5 7.06 5.56 10.45q.16.18.33.34v.01l.16.16a11 11 0 0 1 2.18 3.5q.55 1.52.27 2.92c-.2.9-.77 2.28-2.6 4a6 6 0 0 0 8.23 8.73c3.33-3.14 5.33-6.6 6.1-10.23.77-3.58.23-6.84-.7-9.44a22 22 0 0 0-5.17-8.15c-1.75-1.99-2.38-3.55-2.59-4.63a5.5 5.5 0 0 1 .23-2.96 8 8 0 0 1 1.98-3.05" clip-rule="evenodd"/><path fill="currentColor" fill-rule="evenodd" d="M48 46a2 2 0 0 0-2 2v160c0 1.1.9 2 2 2h160a2 2 0 0 0 2-2V48a2 2 0 0 0-2-2zm-14 2a14 14 0 0 1 14-14h160a14 14 0 0 1 14 14v160a14 14 0 0 1-14 14H48a14 14 0 0 1-14-14z" clip-rule="evenodd"/><path fill="currentColor" fill-rule="evenodd" d="M128 78a50 50 0 1 0 0 100 50 50 0 0 0 0-100m-62 50a62 62 0 1 1 124 0 62 62 0 0 1-124 0" clip-rule="evenodd"/><path fill="currentColor" d="M188 78a10 10 0 1 0 0-20 10 10 0 0 0 0 20"/></svg>