<svg xmlns="http://www.w3.org/2000/svg" fill="none" viewBox="0 0 256 256"><path fill="currentColor" d="M89.61 55.78a6 6 0 0 1 11.15 4.44l-27.7 69.26 25.47 63.7 7.43-2.97a6 6 0 0 1 4.46 11.15l-7.44 2.97 9.67 24.14a6 6 0 0 1-11.15 4.46l-9.67-24.15-7.41 2.97a6 6 0 0 1-4.46-11.13l7.43-2.98-20.8-51.99-20.8 51.99 7.44 2.98a6 6 0 0 1-4.46 11.13l-7.43-2.97-9.65 24.15a6 6 0 0 1-11.15-4.46l9.66-24.14-7.43-2.97a6 6 0 0 1 4.46-11.15l7.42 2.97 25.48-63.7-27.7-69.26a6 6 0 0 1 11.14-4.44l23.02 57.55zM203 225h16.5v-61.5H203zm-60 0h16.5v-61.5H143zm60-73.5h16.5v-26H203zm-60 0h16.5v-26H143zm60-87.9v49.9h16.5V63.6l-8.25-21.43zm-60 0v49.9h16.5V63.6l-8.25-21.43zM171.5 227a10 10 0 0 1-10 10H141a10 10 0 0 1-10-10V63.23q0-1.85.67-3.59l10.25-26.61.72-1.5c3.78-6.54 13.45-6.54 17.23 0l.71 1.5 10.25 26.61q.66 1.74.67 3.6zm60 0a10 10 0 0 1-10 10H201a10 10 0 0 1-10-10V63.23q0-1.85.67-3.59l10.25-26.61.72-1.5c3.78-6.54 13.45-6.54 17.23 0l.71 1.5 10.25 26.61q.66 1.74.67 3.6z"/></svg>