<svg xmlns="http://www.w3.org/2000/svg" fill="none" viewBox="0 0 256 256"><path fill="currentColor" fill-rule="evenodd" d="M97.9 45.9a33.56 33.56 0 0 0-33.6 33.6v29.8h146.2v-6.9a6 6 0 1 1 12 0v113.5a6 6 0 1 1-12 0V212h-164v3.9a6 6 0 1 1-12 0V102.4a6 6 0 0 1 12 0v6.9h5.8V79.5a45.56 45.56 0 0 1 45.6-45.6h21.2a6 6 0 1 1 0 12zm-51.4 75.4v57.6h32.3v-57.6zm44.3 0v57.6H123v-57.6zm44.2 0v57.6h31.7v-57.6zm43.7 0v57.6h31.8v-57.6zm31.8 69.6h-164v9.1h164zM129.87 44.2a6 6 0 0 1 5.73 4.14l2.05 6.26h6.55a6 6 0 0 1 3.53 10.85l-5.3 3.85 1.98 6.17a6 6 0 0 1-9.24 6.68l-5.27-3.83-5.27 3.83a6 6 0 0 1-9.23-6.73l2.03-6.14-5.26-3.83a6 6 0 0 1 3.53-10.85h6.5l1.98-6.21a6 6 0 0 1 5.7-4.19" clip-rule="evenodd"/></svg>