<svg xmlns="http://www.w3.org/2000/svg" fill="none" viewBox="0 0 256 256"><path fill="currentColor" d="M54.5 107c5.85 0 11.6 2.3 16.3 4.52 5.28 2.47 9.02 4.65 12.92 6.13 9.93 3.77 26.67 5.85 44.03 5.85s34.1-2.08 44.03-5.85c3.9-1.48 7.64-3.66 12.91-6.13 4.72-2.21 10.47-4.52 16.31-4.52h39a6 6 0 1 1 0 12h-7.97c.7 5.77.18 11.93-1.13 17.98-1.97 9.08-5.83 18.45-10.87 26.9s-11.38 16.21-18.49 21.93c-7.05 5.68-15.32 9.69-24.04 9.69h-6.69l7.1 10.04a6 6 0 1 1-9.81 6.92l-11.97-16.96H99.87L87.9 212.46a6 6 0 0 1-9.8-6.92l7.09-10.04H78c-9.24 0-17.8-3.92-25.1-9.65s-13.64-13.54-18.58-22.02a89 89 0 0 1-10.44-26.94c-1.2-6.04-1.63-12.17-.92-17.89H15a6 6 0 1 1 0-12zm76.7 54.5c-5.93.2-10.05 2.38-15.28 5.21-5.17 2.8-11.5 6.29-20.42 6.29-13.5 0-22.98-5.2-28.76-7.03-3-.96-5.23-1.23-7.54-.7-1.77.39-3.97 1.33-6.82 3.43a56 56 0 0 0 7.94 7.72c5.88 4.62 11.92 7.08 17.68 7.08h99.5c5.03 0 10.7-2.36 16.52-7.04a64 64 0 0 0 10.97-11.62q-.84-.53-1.78-1.03c-2.64-1.39-5.5-2.31-8.21-2.31-2.86 0-5.35 1.58-10.4 4.8-4.55 2.91-10.71 6.7-19.1 6.7s-14.67-3.97-19.48-6.73c-5.04-2.89-9.13-4.96-14.82-4.77M35.1 119c-.79 4.39-.62 9.68.55 15.53a77 77 0 0 0 9.73 24.42c3.8-2.79 7.48-4.56 11.19-5.4 5.2-1.17 9.75-.31 13.81.98C78.73 157.2 84.5 161 95.5 161c5.58 0 9.5-2.01 14.7-4.84 5.15-2.79 11.53-6.35 20.6-6.66 9.31-.3 15.97 3.37 21.18 6.36 5.44 3.11 8.9 5.14 13.52 5.14s8.2-1.97 12.65-4.8c3.95-2.53 9.71-6.7 16.85-6.7 5.29 0 10.1 1.75 13.8 3.69q1.38.74 2.64 1.53a78 78 0 0 0 7.73-20.28c1.26-5.85 1.5-11.1.74-15.44H201c-3 0-6.66 1.25-11.22 3.38-4 1.88-9.38 4.83-13.74 6.49-11.96 4.54-30.43 6.63-48.29 6.63s-36.33-2.09-48.3-6.63c-4.35-1.66-9.74-4.61-13.73-6.49-4.56-2.13-8.22-3.38-11.22-3.38zM161 77.5a12.5 12.5 0 1 0-25 0 12.5 12.5 0 0 0 25 0m-65-26a7.5 7.5 0 1 0-15 0 7.5 7.5 0 0 0 15 0m77 26a24.5 24.5 0 1 1-49 0 24.5 24.5 0 0 1 49 0m-65-26a19.5 19.5 0 1 1-39 0 19.5 19.5 0 0 1 39 0"/></svg>