<svg xmlns="http://www.w3.org/2000/svg" fill="none" viewBox="0 0 256 256"><path fill="currentColor" d="m73.26 225.74-5.98.46zm110.21 0 5.99.46zM192 114.21l-5.99-.46zm-127.26 0 5.98-.46zm-5.92 94.69a6 6 0 1 0 8.36 8.61l-4.18-4.3zM117.02 26l2.4-5.5-5.5-2.4-2.4 5.5zm39.94 17.42 5.5 2.4 2.4-5.5-5.5-2.4zm-45.76-4.1-5.5-2.4zm39.95 17.42 5.5 2.4zM95.23 79.29v-6h-.28l-.29.03zm31.78 9.99-.88-5.94zm42.21-3.64-4.04 4.44zm-99.88 23.61v6H187.4v-12H69.34zM192 114.21l-5.99-.46-8.52 111.54 5.98.45 5.99.46 8.52-111.53zM178.88 230v-6H77.86v12h101.02zm-105.62-4.26 5.99-.45-8.53-111.54-5.98.46-5.98.46 8.52 111.53zm4.6 4.26v-6c.72 0 1.33.56 1.39 1.29l-5.99.45-5.98.46a10.6 10.6 0 0 0 10.58 9.8zm105.61-4.26-5.98-.45a1.4 1.4 0 0 1 1.39-1.29v12a10.6 10.6 0 0 0 10.58-9.8zm3.93-116.49v6a1.4 1.4 0 0 1-1.39-1.5l5.99.46 5.98.46a10.6 10.6 0 0 0-10.58-11.42zm-118.06 0v-6a10.6 10.6 0 0 0-10.58 11.42l5.98-.46 5.98-.46c.07.81-.57 1.5-1.38 1.5zm73.1 41.76h-6a8.53 8.53 0 0 1-8.52 8.53v12A20.53 20.53 0 0 0 148.44 151zm-14.52 14.53v-6a8.53 8.53 0 0 1-8.53-8.53h-12a20.53 20.53 0 0 0 20.53 20.53zM113.39 151h6c0-4.7 3.82-8.52 8.53-8.52v-12A20.53 20.53 0 0 0 107.39 151zm14.53-14.52v6c4.7 0 8.52 3.81 8.52 8.52h12a20.53 20.53 0 0 0-20.52-20.52zM113.72 164l-4.17-4.3-50.73 49.2 4.18 4.3 4.18 4.31 50.73-49.2zm3.3-138-2.4 5.5 39.94 17.42 2.4-5.5 2.4-5.5L119.4 20.5zm39.94 17.42-5.5-2.4-5.81 13.32 5.5 2.4 5.5 2.4 5.8-13.32zm-45.76-4.1 5.5 2.4 5.81-13.32-5.5-2.4-5.5-2.4-5.8 13.32zM122.48 68l2.4-5.5a15.8 15.8 0 0 1-8.17-20.79l-5.5-2.4-5.5-2.4a27.8 27.8 0 0 0 14.37 36.59zm28.68-11.26-5.5-2.4a15.8 15.8 0 0 1-20.79 8.16l-2.4 5.5-2.4 5.5a27.8 27.8 0 0 0 36.59-14.36zm-78.62 48.42 5.9 1.1c2.57-13.79 11.24-20.41 17.37-21l-.57-5.97-.57-5.97c-12.93 1.23-24.78 13.3-28.03 30.75zm22.7-25.87v6c4.9 0 9.13 2.1 14.35 4.84 4.54 2.4 11.07 6.15 18.3 5.08l-.87-5.93-.88-5.94c-2.58.38-5.35-.86-10.95-3.82-4.94-2.6-11.68-6.23-19.95-6.23zm31.78 9.99.88 5.93c3.6-.53 7.55-1.73 11.22-2.88 3.83-1.21 7.5-2.42 11.1-3.3 7.62-1.84 12.22-1.47 14.97 1.05l4.04-4.44 4.05-4.43c-7.69-7.02-18.08-5.73-25.89-3.84-4.1 1-8.28 2.38-11.88 3.5-3.76 1.2-6.85 2.1-9.37 2.47zm42.21-3.64-4.04 4.44a72 72 0 0 1 6.73 7.7c2.79 3.6 5.22 7.25 6.35 9.8l5.49-2.42 5.49-2.42c-1.75-3.95-4.92-8.54-7.84-12.31a82 82 0 0 0-8.13-9.22zm-58.32-12.7-2.45 5.47 13.27 5.91 2.45-5.48 2.44-5.48-13.28-5.91z"/></svg>