<svg xmlns="http://www.w3.org/2000/svg" width="256" height="256" fill="currentColor"><path fill-rule="evenodd" d="M83.972 19c10.672.001 19.418 4.684 26.198 8.27 7.45 3.941 11.917 6.094 16.271 5.449 3.64-.54 8.007-1.834 13.125-3.448 4.949-1.562 10.551-3.41 16.062-4.75 10.625-2.583 23.753-4.034 33.344 4.74 2.67 2.443 7.599 8.147 12.219 14.135 4.202 5.445 8.664 11.822 11.146 16.833 5.862 1.273 10.11 6.727 9.635 12.959l-11.635 152.447c-.488 6.4-5.819 11.363-12.25 11.365H60.274c-6.432 0-11.761-4.964-12.25-11.365l-1.218-15.875-2.605 2.563a5.997 5.997 0 0 1-8.395-8.563l9.812-9.635-9.219-120.937c-.493-6.473 4.099-12.092 10.313-13.073 2.435-10.56 7.293-19.93 13.312-27.032 6.43-7.585 14.739-13.226 23.375-14.052l.292-.031zM48.65 71.948a.3.3 0 0 0-.291.323l8.448 110.875 48.947-48.011a25.8 25.8 0 0 1-3.01-12.104c.003-14.266 11.555-25.854 25.823-25.854 14.264.004 25.81 11.59 25.812 25.854 0 14.267-11.546 25.861-25.812 25.865-5.544 0-10.67-1.774-14.875-4.75l-55.688 54.635 1.98 25.948a.297.297 0 0 0 .291.271h137.813a.3.3 0 0 0 .291-.271l11.625-152.458a.304.304 0 0 0-.291-.323zm79.917 37.229c-7.619 0-13.82 6.194-13.823 13.854 0 7.663 6.203 13.865 13.823 13.865 7.617-.004 13.812-6.204 13.812-13.865-.002-7.658-6.197-13.85-13.812-13.854M84.264 31.01c-4.327.523-9.896 3.702-15.094 9.834-4.247 5.012-7.857 11.602-10.02 19.104h139.145c-1.868-2.852-4.161-6.053-6.604-9.219-4.556-5.904-8.963-10.912-10.823-12.614-4.651-4.255-11.97-4.471-22.396-1.938-5.012 1.219-10.103 2.905-15.291 4.542-5.02 1.583-10.261 3.163-14.98 3.864-9.017 1.338-17.248-3.33-23.635-6.708-6.965-3.684-13.142-6.782-20.302-6.865" clip-rule="evenodd"/></svg>