<svg xmlns="http://www.w3.org/2000/svg" fill="none" viewBox="0 0 256 256"><path fill="currentColor" d="M198 125.4c-.78.37-1.64.6-2.55.6H60.55c-.91 0-1.77-.23-2.55-.6V216c0 10.24 7.81 18 16.8 18h106.4c8.99 0 16.8-7.76 16.8-18zM166.65 152v-8a6 6 0 0 1 12 0v8a6 6 0 1 1-12 0m0-56v-8a6 6 0 0 1 12 0v8a6 6 0 1 1-12 0M198 40c0-10.23-7.81-18-16.8-18H74.8C65.81 22 58 29.77 58 40v74.58a6 6 0 0 1 2.55-.58h134.9q1.38.02 2.55.58zm12 176c0 16.28-12.61 30-28.8 30H74.8C58.61 246 46 232.28 46 216V40c0-16.27 12.61-30 28.8-30h106.4c16.19 0 28.8 13.73 28.8 30z"/></svg>