<svg xmlns="http://www.w3.org/2000/svg" width="256" height="256" fill="currentColor"><path  d="M167.042 198.406c3.411.001 6.185 2.767 6.187 6.177-.106 3.307-2.775 6.083-6.187 6.084H88.854c-3.413 0-6.187-2.67-6.187-6.084a6.187 6.187 0 0 1 6.187-6.177z"/><path  fill-rule="evenodd" d="M126.188 37.333c38.719 0 70.187 31.468 70.187 70.188s-31.468 70.187-70.187 70.187c-38.72 0-70.187-31.468-70.188-70.187 0-38.72 31.468-70.188 70.188-70.188m-57.386 76.271v.854c2.668 22.398 18.239 41.278 39.677 48.105h.104l2.24.739-1.594-2.344c-.533-.746-1.073-1.493-1.5-2.239-8.212-13.226-13.006-28.163-14.073-44.375v-.74zm89.813.104v.75c-1.068 16.211-5.872 31.14-14.084 44.365-.426.746-.959 1.389-1.385 2.135l-1.604 2.344 2.25-.739c21.436-6.934 37.113-25.815 39.781-48.105v-.75zm-52.907-.104v.854c1.067 13.863 5.119 26.553 12.157 37.75 2.239 3.52 4.8 6.939 7.573 10.032l.645.635.636-.635h-.104c2.773-3.093 5.333-6.512 7.573-10.032 6.93-11.197 11.089-23.887 12.156-37.75v-.854zm2.667-61.229c-21.333 6.933-37.01 25.811-39.677 48.104h-.115v.854h24.959v-.75c1.067-16.212 5.87-31.149 14.083-44.375.426-.852.967-1.598 1.5-2.343l1.49-2.24zm17.167.323h.114c-2.772 2.986-5.333 6.395-7.573 10.02-6.933 11.2-11.1 23.895-12.166 37.761v.854h40.645v-.854c-1.066-13.866-5.126-26.56-12.166-37.76-2.24-3.626-4.801-6.929-7.573-10.021l-.635-.646zm17.708 1.385c.425.745.96 1.382 1.385 2.125 8.213 13.226 13.017 28.163 14.084 44.375v.75h24.854v-.854c-2.774-22.398-18.344-41.276-39.781-48.104l-2.25-.75z" clip-rule="evenodd"/><path  fill-rule="evenodd" d="M215.896 5.333c8.745.002 15.896 7.15 15.896 15.896v215.146c-.001 8.745-7.151 15.895-15.896 15.896h-176c-8.746 0-15.895-7.15-15.896-15.896V21.229c0-8.746 7.15-15.896 15.896-15.896zm-176 12.271a3.594 3.594 0 0 0-3.625 3.625v215.146A3.595 3.595 0 0 0 39.896 240h176a3.597 3.597 0 0 0 3.625-3.625V21.229c0-2.026-1.6-3.623-3.625-3.625z" clip-rule="evenodd"/></svg>