<svg xmlns="http://www.w3.org/2000/svg" width="256" height="256" fill="currentColor"><path  d="M59.745 82c2.68 0 5.25 1.063 7.145 2.958a10.13 10.13 0 0 1 2.97 7.156c-.001 2-.599 3.953-1.71 5.615a10.12 10.12 0 0 1-4.54 3.729 10.1 10.1 0 0 1-5.845.573 10.126 10.126 0 0 1-7.375-13.792 10.13 10.13 0 0 1 3.73-4.541A10.13 10.13 0 0 1 59.745 82"/><path  fill-rule="evenodd" d="m50.526 1.26 91.718 19.49a14.1 14.1 0 0 1 5.084 2.177 14.15 14.15 0 0 1 3.854 3.969l77.385 119.156a14.208 14.208 0 0 1 1.969 10.667 14.2 14.2 0 0 1-2.177 5.072 14.2 14.2 0 0 1-3.958 3.855l-12.511 8.114-78.083 78.094a14.2 14.2 0 0 1-4.594 3.073 14.2 14.2 0 0 1-5.416 1.073c-1.86 0-3.709-.361-5.428-1.073a14.2 14.2 0 0 1-4.593-3.073L13.307 151.385a14.1 14.1 0 0 1-4.146-10.021v-93.76c0-1.61.643-3.153 1.781-4.292a6.08 6.08 0 0 1 4.292-1.78h20.531l7.563-35.595a6.1 6.1 0 0 1 2.635-3.833 6.08 6.08 0 0 1 4.563-.844m74.698 242 85.666-85.666a2.03 2.03 0 0 0 .438-2.209 2 2 0 0 0-.438-.656L110.422 54.271a2.02 2.02 0 0 0-1.428-.594H21.297v87.687a2.03 2.03 0 0 0 .604 1.427l75.052 75.063-.01-.021 15.885 15.886-.021-.011 9.552 9.552a2.03 2.03 0 0 0 2.865 0M48.182 41.531h60.812a14.1 14.1 0 0 1 10.011 4.146l85.281 85.281-63.292-97.448a2.05 2.05 0 0 0-1.27-.885l-85.782-18.23z" clip-rule="evenodd"/></svg>