<svg xmlns="http://www.w3.org/2000/svg" fill="none" viewBox="0 0 256 256"><path fill="currentColor" fill-rule="evenodd" d="M48.5 45.9a2 2 0 0 0-2 2v160c0 1.1.9 2 2 2h160a2 2 0 0 0 2-2v-160a2 2 0 0 0-2-2zm-14 2a14 14 0 0 1 14-14h160a14 14 0 0 1 14 14v160a14 14 0 0 1-14 14h-160a14 14 0 0 1-14-14z" clip-rule="evenodd"/><path fill="currentColor" fill-rule="evenodd" d="M34.5 81a6 6 0 0 1 6-6h176a6 6 0 1 1 0 12h-176a6 6 0 0 1-6-6" clip-rule="evenodd"/><path fill="currentColor" fill-rule="evenodd" d="M99.3 81a6 6 0 0 1 6-6h46.4a6 6 0 0 1 6 6v19.5a6 6 0 0 1-6 6h-46.4a6 6 0 0 1-6-6zm12 6v7.5h34.4V87z" clip-rule="evenodd"/><path fill="currentColor" d="M128.5 71a10.6 10.6 0 1 0 0-21.2 10.6 10.6 0 0 0 0 21.2"/><path fill="currentColor" fill-rule="evenodd" d="M145.7 60.4a6 6 0 0 1 6-6h13.8a6 6 0 1 1 0 12h-13.8a6 6 0 0 1-6-6m32.8 0a6 6 0 0 1 6-6h13.7a6 6 0 1 1 0 12h-13.7a6 6 0 0 1-6-6m-87.8 86.9c-11.8 0-20.9 9.07-20.9 19.7s9.1 19.7 20.9 19.7 20.9-9.07 20.9-19.7-9.1-19.7-20.9-19.7M57.8 167c0-17.76 15-31.7 32.9-31.7s32.9 13.94 32.9 31.7-15 31.7-32.9 31.7-32.9-13.94-32.9-31.7" clip-rule="evenodd"/><path fill="currentColor" fill-rule="evenodd" d="M120.7 141.2a6 6 0 0 1 6-6c7.23 0 12.87 4.7 16.4 10.35 3.57 5.74 5.6 13.3 5.6 21.35s-2.03 15.6-5.6 21.35c-3.53 5.65-9.17 10.35-16.4 10.35a6 6 0 1 1 0-12c1.57 0 3.93-1.05 6.2-4.7 2.23-3.56 3.8-8.85 3.8-15s-1.57-11.44-3.8-15c-2.27-3.65-4.63-4.7-6.2-4.7a6 6 0 0 1-6-6" clip-rule="evenodd"/><path fill="currentColor" fill-rule="evenodd" d="M144.6 141.2a6 6 0 0 1 6-6c7.23 0 12.87 4.7 16.4 10.35 3.57 5.74 5.6 13.3 5.6 21.35s-2.03 15.6-5.6 21.35c-3.53 5.65-9.17 10.35-16.4 10.35a6 6 0 1 1 0-12c1.57 0 3.93-1.05 6.2-4.7 2.23-3.56 3.8-8.85 3.8-15s-1.57-11.44-3.8-15c-2.27-3.65-4.63-4.7-6.2-4.7a6 6 0 0 1-6-6" clip-rule="evenodd"/><path fill="currentColor" fill-rule="evenodd" d="M168.5 141.2a6 6 0 0 1 6-6c7.23 0 12.87 4.7 16.4 10.35 3.57 5.74 5.6 13.3 5.6 21.35s-2.03 15.6-5.6 21.35c-3.53 5.65-9.17 10.35-16.4 10.35a6 6 0 1 1 0-12c1.57 0 3.93-1.05 6.2-4.7 2.23-3.56 3.8-8.85 3.8-15s-1.57-11.44-3.8-15c-2.27-3.65-4.63-4.7-6.2-4.7a6 6 0 0 1-6-6" clip-rule="evenodd"/></svg>