<svg xmlns="http://www.w3.org/2000/svg" width="256" height="256" fill="currentColor"><path d="M107 113.333c5.523 0 10 4.478 10 10s-4.477 10-10 10-10-4.477-10-10 4.477-10 10-10"/><path fill-rule="evenodd" d="M212 53.333c8.837 0 16 7.164 16 16v101l-.083 1.636c-.819 8.068-7.633 14.364-15.917 14.364H85.99l-14 34.573-.375.719a4.01 4.01 0 0 1-4.084 1.708l-.791-.239-3.615-1.511a3.993 3.993 0 0 1-2.125-5.26l12.885-29.99H44l-1.635-.083c-7.531-.765-13.517-6.751-14.282-14.281L28 170.333v-101c0-8.284 6.296-15.097 14.365-15.916L44 53.333zM58.77 156.99c-4.678-4.676-12.952-4.895-18.77.479v12.864a4 4 0 0 0 4 4h15.48c4.129-5.682 3.596-13.038-.71-17.343m14.074-91.657c3.043 8.813 1.406 18.832-5.584 25.823-7.374 7.374-18.118 8.792-27.26 5.042v47.26c9.142-3.747 19.887-2.321 27.26 5.052 6.99 6.992 8.626 17.011 5.584 25.823h6.198l15.916-37.031a4.005 4.005 0 0 1 5.219-2.114l1.917.802a4.005 4.005 0 0 1 2.166 5.198l-13.416 33.145H102c0-15.201 10.881-29 26-29s26 13.799 26 29h29.583c-3.044-8.814-1.409-18.841 5.584-25.833 7.259-7.259 17.785-8.74 26.833-5.208V96.365c-9.049 3.533-19.573 2.062-26.833-5.198-6.993-6.993-8.629-17.02-5.584-25.834H154c0 15.202-10.881 29-26 29s-26-13.798-26-29zm55.156 92c-6.972 0-14 6.797-14 17h28c0-10.203-7.028-17-14-17m88-.26c-5.791-4.975-13.78-4.647-18.344-.083-4.307 4.307-4.833 11.66-.698 17.343H212a4 4 0 0 0 4-4zM44 65.333a4 4 0 0 0-4 4v12.855c5.819 5.379 14.09 5.166 18.77.49 4.306-4.306 4.839-11.663.71-17.345zm152.958 0c-4.135 5.683-3.609 13.037.698 17.344 4.565 4.565 12.552 4.886 18.344-.094v-13.25a4 4 0 0 0-4-4zm-82.958 0c0 10.204 7.028 17 14 17s14-6.796 14-17z" clip-rule="evenodd"/></svg>