<svg xmlns="http://www.w3.org/2000/svg" fill="none" viewBox="0 0 256 256"><g fill="currentColor" clip-path="url(#clip0_15684_3078)"><path d="m220.8 80.43-.21-.32a104.6 104.6 0 0 0-29.55-36.48 106 106 0 0 0-42.88-19.95 105.5 105.5 0 0 0-47.25.85 105.5 105.5 0 0 0-42.14 21.44A106 106 0 0 0 30.3 83.73a109 109 0 0 0-8.96 46.3c.54 15.89 4.7 31.57 12.27 45.65l.32.64-.21.64-11.52 34.88-.54 2.03c-.32 2.02-.32 4.16.11 6.18a14 14 0 0 0 3.95 7.04 14.5 14.5 0 0 0 7.04 3.95 14 14 0 0 0 8.1-.43L75.73 219l.64-.22.64.32a105.2 105.2 0 0 0 103.47-2.66 105 105 0 0 0 37.33-38.4l1.6-2.99a104.6 104.6 0 0 0 11.95-48.75c0-15.89-3.63-31.68-10.67-45.97zm-13.55 89.49-1.38 2.45a92 92 0 0 1-33.6 33.6l-2.67 1.5a92 92 0 0 1-89.28-1.6l-.75-.43a7 7 0 0 0-2.56-.43c-.74 0-1.38 0-2.02.32l-38.4 12.8-2.99.96.96-3.09 12.8-38.4c.32-.96.43-1.92.32-2.56v-.21c0-.96-.32-1.82-.85-2.56l1.38-.86-1.38.75a92.6 92.6 0 0 1-12.16-40 92 92 0 0 1 6.82-41.17l2.14-4.8A94 94 0 0 1 65.7 57.07l4.05-3.31a91.4 91.4 0 0 1 112.21-.43 91.6 91.6 0 0 1 26.46 32.32 92 92 0 0 1 9.49 40.64 91 91 0 0 1-10.99 43.52h.43z"/><path d="m120.64 161.92-1.17.96a11 11 0 0 0-2.67 3.84 11 11 0 0 0-.75 4.48l.22 1.5.42 1.49a11 11 0 0 0 2.46 3.84 9.7 9.7 0 0 0 5.22 2.77l2.24.21c1.28 0 2.78-.32 4.06-.74l1.28-.64a8.4 8.4 0 0 0 3.2-3.2l.74-1.39a11 11 0 0 0 1.07-4.48 10.4 10.4 0 0 0-2.99-7.36 10.8 10.8 0 0 0-13.22-1.28zm5.86-90.24c-21.43 0-38.4 15.36-38.4 33.7 0 1.5.65 3 1.71 4.17a5.96 5.96 0 0 0 8.22 0 5.6 5.6 0 0 0 1.7-4.16c0-12.59 12.38-22.19 26.88-22.19 14.4 0 26.88 9.6 26.88 22.19 0 12.58-12.37 22.18-26.88 22.18a6.3 6.3 0 0 0-4.16 1.71 5.6 5.6 0 0 0-1.7 4.16v9.28c0 1.5.64 2.99 1.7 4.16a5.6 5.6 0 0 0 4.16 1.7c1.5 0 2.99-.63 4.16-1.7a5.6 5.6 0 0 0 1.71-4.16v-3.84l1.39-.21c18.13-2.99 31.25-17.07 31.25-33.18 0-18.45-17.07-33.7-38.4-33.7z"/></g><defs><clipPath id="clip0_15684_3078"><path fill="currentColor" d="M21.33 21.33h210.14v210.14H21.33z"/></clipPath></defs></svg>