<svg xmlns="http://www.w3.org/2000/svg" fill="none" viewBox="0 0 256 256"><path fill="currentColor" d="M196.33 26a6 6 0 0 1 6 6v18h18a6 6 0 0 1 0 12h-18v18a6 6 0 0 1-12 0V62h-18a6 6 0 1 1 0-12h18V32a6 6 0 0 1 6-6M102 108a10 10 0 1 1-20 0 10 10 0 0 1 20 0m-8.8 41a6 6 0 1 0-10.4 6c9.21 15.92 24.98 27 45.2 27s35.99-11.08 45.2-27a6 6 0 1 0-10.4-6c-7.39 12.78-19.48 21-34.8 21s-27.41-8.22-34.8-21m70.8-31a10 10 0 1 0 0-20 10 10 0 0 0 0 20"/><path fill="currentColor" d="M87.72 47.52a90 90 0 0 1 55.22-8.27 6 6 0 0 0 1.99-11.84 102 102 0 1 0 83.66 83.66 6 6 0 1 0-11.84 2A90 90 0 1 1 87.72 47.51"/></svg>