<svg xmlns="http://www.w3.org/2000/svg" fill="none" viewBox="0 0 256 256"><path fill="currentColor" d="M229.41 177.24c0-10.48-8.52-19-19-19h-53v-42.98c4.25.76 8.7 2.56 13.1 6l.27.18.34.25.12.06q.2.11.43.2.22.12.45.2.22.09.46.15l.47.12.46.07.5.04.2.02.37-.02.2-.01a8 8 0 0 0 .96-.18q.33-.09.65-.21l.21-.1q.36-.15.71-.35l.04-.02a6 6 0 0 0 .76-.55c18.66-16.04 38.81-.52 39.64.14a6 6 0 0 0 6.3.74 6 6 0 0 0 3.44-5.33c.02-1.3.27-32-21.03-53.63-13.29-13.51-31.82-20.36-55.07-20.36s-41.78 6.85-55.07 20.36c-21.3 21.65-21.05 52.34-21.03 53.63a6.02 6.02 0 0 0 9.73 4.6c.85-.67 21-16.2 39.66-.15l.21.15a5 5 0 0 0 .95.6q.2.12.42.2a4 4 0 0 0 1.02.34l.55.1.54.05.23.02.25-.02h.02q.52-.02 1.03-.14l.13-.03.4-.12.3-.1a5 5 0 0 0 .92-.43l.03-.02.1-.06.38-.26c.42-.31 5.72-4.1 13.24-5.77v42.64H99.57l-35.09-32.9a19 19 0 0 0-13.28-5.6 18.8 18.8 0 0 0-13.5 5.4 19.03 19.03 0 0 0-.28 26.9l.15.14 44.5 42.4a6 6 0 0 0 4.14 1.66h1.9v4.9c0 7.94 6.46 14.4 14.4 14.4s14.4-6.46 14.4-14.4v-4.9h69.2v4.9c0 7.94 6.46 14.4 14.4 14.4s14.4-6.46 14.4-14.4v-5.46a19 19 0 0 0 14.5-18.44zm-78-74.4q-.44 0-.86.07c-6.52.28-12.52 2-17.4 4.17a60.7 60.7 0 0 1 18.25-50.51 60.7 60.7 0 0 1 18.3 50.16 40 40 0 0 0-17.67-3.85zm46.44-31.5c10.63 10.76 14.87 24.7 16.55 34.2a46 46 0 0 0-17.7-3.68c-4.77 0-9.77.84-14.76 2.89 1.35-22.26-7.23-38.68-15.08-48.84 12.68 2.23 23.06 7.4 31 15.43m-109.43 34.2c1.68-9.51 5.92-23.44 16.55-34.2 7.93-8.03 18.32-13.2 31-15.43-7.85 10.16-16.43 26.58-15.08 48.84-11.78-4.84-23.55-2.92-32.46.8m16.5 95.6c0 1.35-1.06 2.4-2.4 2.4a2.37 2.37 0 0 1-2.4-2.4v-2.4h4.8zm98 0c0 1.35-1.06 2.4-2.4 2.4a2.37 2.37 0 0 1-2.4-2.4v-2.4h4.8zm7.5-16.9H88.61l-42.69-40.66a7.1 7.1 0 0 1 .18-9.85 7 7 0 0 1 4.9-1.97h.07c1.9.02 3.65.76 4.95 2.09l.18.18 36.9 34.6a6 6 0 0 0 4.1 1.62h113.2a7 7 0 0 1 0 14z"/></svg>