<svg fill="currentColor" xmlns="http://www.w3.org/2000/svg" viewBox="0 0 256 256"><path fill-rule="evenodd" clip-rule="evenodd" d="m209.5 25.6-1.9 5.7 2-5.7a6 6 0 0 1-.2 11.4 155.3 155.3 0 0 0-37.8 24.8 49.4 49.4 0 0 1 36.8 5A91.5 91.5 0 0 1 235 89.6a121 121 0 0 1 9.5 13.5l.2.3-5.2 3 5.2-3a6 6 0 0 1-7 8.7c-20-6.4-39.6-7.8-56.7-6.9a49 49 0 0 1 33 35.6 91.5 91.5 0 0 1 1.4 35 120.8 120.8 0 0 1-3.4 16.2v.4l-5.8-1.8 5.7 1.8a6 6 0 0 1-11.1.8c-12.6-26.6-32-46-48.5-58.8-4.2-3.4-8.3-6.2-12-8.7a175 175 0 0 0-5.4 27.8c-2.5 19.9-2.4 44.9 7.1 67a6 6 0 0 1-5.5 8.3H74.6a6 6 0 0 1-6-6.5l6 .5-6-.5V222a74.5 74.5 0 0 1 .4-3.2c.3-2.2.7-5.4 1.4-9.2a242 242 0 0 1 7-30c5.9-18.9 15.5-41.3 31.6-57.5-5.5-.4-12.5-.7-20.5-.4a169 169 0 0 0-72.9 18.9 6 6 0 0 1-8.5-7.1l5.7 1.8-5.7-1.8v-.1l.1-.3a60 60 0 0 1 1.6-4.2c1-2.8 2.7-6.6 5-11a90.5 90.5 0 0 1 21.1-27.6 47.5 47.5 0 0 1 36.4-11.7c-12.4-7.8-27-14.9-43.6-19.2a6 6 0 0 1-1.3-11l2.8 5.2-2.8-5.3.3-.2a58 58 0 0 1 4-2A121 121 0 0 1 42 42c9.2-3 21.8-6 34.7-5.1a49.1 49.1 0 0 1 42.2 27.7 63.1 63.1 0 0 1 6-17.2 49 49 0 0 1 33-24.8c12.6-3 25.5-2.2 35.1-.7a121.1 121.1 0 0 1 16.1 3.7h.3v.1h.1Zm-93 75a72.5 72.5 0 0 0-12.6-37.5 37.1 37.1 0 0 0-28-14.4A78.8 78.8 0 0 0 46.6 53a185.5 185.5 0 0 1 69.8 47.6Zm8.7 23.3c-18.4 13.9-29.6 37.8-36.3 59.4a230 230 0 0 0-7.5 33.6h46.3a150.5 150.5 0 0 1-4.8-64.8 209.8 209.8 0 0 1 5.5-28.2h-3.2Zm18.5-10.1a185.6 185.6 0 0 1 59.8 59.7 78.8 78.8 0 0 0-1.2-29.5A37 37 0 0 0 183 119a72.5 72.5 0 0 0-39.3-5.3Zm-3-14.4a72.5 72.5 0 0 1 30.7-25 37 37 0 0 1 31.3 3c9.1 4.8 16.8 12.4 22.3 19.1a185.1 185.1 0 0 0-84.4 2.9ZM129.2 92c3.1-4.6 7-10 11.6-15.6 11.4-14 27.8-30.4 49.3-43a78.8 78.8 0 0 0-29.4.6A37 37 0 0 0 135.5 53c-4.6 8.6-7.3 21-6.2 39.1Zm-22.6 18a185.7 185.7 0 0 0-82.1 13.2c4-7.9 10-17 18-23.7 8-6.6 17.6-10.6 29.5-8.7 9.5 1.6 21 7 34.6 19.1Z"/></svg>