<svg xmlns="http://www.w3.org/2000/svg" fill="none" viewBox="0 0 256 256"><path fill="currentColor" d="M220.5 210h-.6v-68.9h.6c3.3 0 6-2.7 6-6s-2.7-6-6-6h-29.2V97.3c0-34.9-28.4-63.3-63.3-63.3S64.7 62.4 64.7 97.3v31.8H35.5c-3.3 0-6 2.7-6 6s2.7 6 6 6h.6V210h-.6c-3.3 0-6 2.7-6 6s2.7 6 6 6h185c3.3 0 6-2.7 6-6s-2.7-6-6-6m-12.6 0h-16.6v-68.9h16.6zM76.7 99.6H122v29.5H76.7zm102.6 29.5H134V99.6h45.3zm-102.6 12h16.7V210H76.7zm28.6 0H122V210h-16.7zm28.7 0h16.6V210H134zm28.6 0h16.6V210h-16.6zm15.8-53.5H134V46.4a51.5 51.5 0 0 1 44.4 41.2M122 46.4v41.2H77.6A51.4 51.4 0 0 1 122 46.4m-73.9 94.7h16.6V210H48v-68.9z"/></svg>