<svg xmlns="http://www.w3.org/2000/svg" fill="none" viewBox="0 0 256 256"><path fill="currentColor" fill-rule="evenodd" d="M79.4 34.51a6 6 0 0 1 6.6 1.5l42 45.27 42-45.26a6 6 0 0 1 10.4 4.08v12.76l11.5-6.65a6 6 0 0 1 9 5.19v13.45l13.58-3.55a6 6 0 0 1 7.52 5.8v125.8a6 6 0 0 1-4.48 5.8l-88 23a6 6 0 0 1-3.04 0l-88-23a6 6 0 0 1-4.48-5.8V67.1a6 6 0 0 1 7.52-5.8l13.58 3.55V51.4a6 6 0 0 1 9-5.2l11.5 6.66V40.1a6 6 0 0 1 3.8-5.59m-1.35 33.63L67.1 61.8v6.17l19.35 5.06-7.85-4.53zM122 94.74 46 74.86v113.4l76 19.86zm12 113.39 76-19.86V74.87l-76 19.86zm54.9-140.16V61.8l-10.95 6.34-.55.36-7.85 4.53zm-20.5-8.17v-4.41l-8.84 9.52zm-71.96 5.1-8.84-5.1v-4.41zm101.63 24.04a6 6 0 0 1 2.33 4.75v18.9a6 6 0 0 1-4.48 5.8l-44.8 11.7a6 6 0 0 1-7.52-5.8v-18.9a6 6 0 0 1 4.48-5.8l44.8-11.7a6 6 0 0 1 5.19 1.05m-42.47 21.08v6.5l32.8-8.56v-6.5zM55.3 93.67a6 6 0 0 1 7.33-4.27l44.9 11.8a6 6 0 1 1-3.06 11.6L59.58 101a6 6 0 0 1-4.27-7.33m0 20.2a6 6 0 0 1 7.33-4.27l27 7.1a6 6 0 0 1-3.06 11.6l-27-7.1a6 6 0 0 1-4.27-7.33m0 19.92a6 6 0 0 1 7.3-4.3l27 7a6 6 0 0 1-3 11.62l-27-7a6 6 0 0 1-4.3-7.32m117.19-1.69a6 6 0 0 1 5.66 3.97l3.13 8.7 12.57-3.37a6 6 0 0 1 5.58 10.25l-11.82 10.7 3.64 10.12a6 6 0 0 1-7.87 7.6l-10.62-4.22-12.03 10.9a6 6 0 0 1-9.68-6.46l4.06-11.45-8.73-3.46a6 6 0 0 1 .67-11.37l14.85-3.99 4.95-13.93a6 6 0 0 1 5.64-3.99m-4.03 31.63a6 6 0 0 1 5.25-.4l1.74.68-.5-1.38a6 6 0 0 1 .44-5.01 6 6 0 0 1-2.72-2.06l-.52 1.45a6 6 0 0 1-4.1 3.78l-1.16.32a6 6 0 0 1 1.57 2.62" clip-rule="evenodd"/></svg>