<svg xmlns="http://www.w3.org/2000/svg" fill="none" viewBox="0 0 256 256"><path fill="currentColor" d="M190 90.5c0-36.73-25.77-62.5-62.5-62.5S65 53.77 65 90.5c0 10.66 3.29 26.57 8.08 42.03 4.6 14.8 10.29 28.2 15.05 35.47h79.16c4.6-7.34 10.18-20.76 14.7-35.52 4.73-15.45 8.01-31.34 8.01-41.98M136 133a8 8 0 1 0-16 0 8 8 0 0 0 16 0m-9.1-94c29.02-.52 49.89 20.81 51.93 48.05.45 6-4.46 10.45-9.84 10.45H86c-5.4 0-10.27-4.47-9.84-10.43l.24-2.53C79.37 58.61 98.97 39.5 126.9 39m.2 12c-21.52.39-36.27 14.54-38.72 34.5h33.07l16.25-16.69a6 6 0 0 1 8.6 8.38l-8.1 8.31h28.42c-2.6-20.14-18.18-34.88-39.52-34.5m20.9 82a20 20 0 1 1-40 0 20 20 0 0 1 40 0m54-42.5c0 12.44-3.69 29.68-8.53 45.49-4.84 15.78-11.13 31.16-16.84 39.7a9.7 9.7 0 0 1-8.13 4.31H136v76h-12v-76H86.95c-3 0-6.1-1.36-8.02-4.12-5.98-8.57-12.42-24-17.32-39.8C56.71 120.24 53 102.96 53 90.5 53 47.15 84.15 16 127.5 16S202 47.15 202 90.5"/></svg>