<svg xmlns="http://www.w3.org/2000/svg" fill="none" viewBox="0 0 256 256"><g fill="currentColor" fill-rule="evenodd" clip-path="url(#clip0_5280_20765)" clip-rule="evenodd"><path d="M105.76 72.08a6 6 0 0 0-9.18 5.09v101.67a6 6 0 0 0 9.18 5.08l81.34-50.83a6 6 0 0 0 0-10.18zM172.6 128l-64.02 40V88z"/><path d="M128 0C57.3 0 0 57.3 0 128s57.3 128 128 128 128-57.3 128-128S198.7 0 128 0M12 128C12 63.94 63.94 12 128 12s116 51.94 116 116-51.93 116-116 116S12 192.07 12 128"/></g><defs><clipPath id="clip0_5280_20765"><path fill="currentColor" d="M0 0h256v256H0z"/></clipPath></defs></svg>