<svg xmlns="http://www.w3.org/2000/svg" fill="none" viewBox="0 0 256 256"><path fill="currentColor" fill-rule="evenodd" d="M55.43 29.87c2.02-2.31 5.36-4.57 9.17-4.57a12.6 12.6 0 0 1 12.08 9.12L86.93 57.9H192a6 6 0 0 1 1.48.18c6.42.74 11.42 6.2 11.42 12.82v1.7c0 7.11-5.79 12.9-12.9 12.9h-28.1v30.8c0 9.42-6.6 17.24-15.45 19.08l2.21 16.02h16.54a6 6 0 1 1 0 12h-14.88l8.52 61.68a6 6 0 0 1-11.88 1.64l-9.39-67.88q-.14-.6-.17-1.23l-3.01-21.81H99.3l-12.57 90.92a6 6 0 0 1-11.88-1.64L87.2 135.8h-6.4a6 6 0 0 1-5.82-4.54l-22.6-90.3-.05-.2c-.96-4.52.94-8.43 3.1-10.9M190.9 69.9H83a6 6 0 0 1-5.5-3.6l-12-27.5a6 6 0 0 1-.34-1.04.6.6 0 0 0-.28-.37q-.2.15-.43.4-.3.36-.36.55l21.4 85.46h58.91c4.19 0 7.5-3.31 7.5-7.5V79.5a6 6 0 0 1 6-6H192a.9.9 0 0 0 .9-.9v-1.7a.9.9 0 0 0-.9-.9q-.56 0-1.1-.1" clip-rule="evenodd"/></svg>