<svg xmlns="http://www.w3.org/2000/svg" fill="none" viewBox="0 0 256 256"><path fill="currentColor" fill-rule="evenodd" d="M70 89.8a6 6 0 0 1 6-6h108.7a6 6 0 0 1 6 6 60.3 60.3 0 0 1-60.3 60.3 60.3 60.3 0 0 1-60.29-59.15A6 6 0 0 1 70 89.8m12.47 6a48.3 48.3 0 0 0 47.93 42.3 48.3 48.3 0 0 0 47.93-42.3zm70.05-64.42a6 6 0 0 1 8.2-2.16l-3.02 5.18 3.03-5.18.02.01.02.02.24.15.53.34q.63.43 1.57 1.2c1.16 1 2.8 2.62 3.96 4.87a12 12 0 0 1 .95 9.04c-.99 3.39-3.37 6.3-6.7 8.83l-.5.36q-.25.19-.69.57a6 6 0 0 0-1.42 1.78c.14.25.64.95 2.21 1.95a6 6 0 1 1-6.44 10.12c-3.54-2.25-6.18-5.06-7.27-8.58a12 12 0 0 1 .93-9.2 18 18 0 0 1 3.95-4.98 21 21 0 0 1 2.08-1.65l.03-.02c1.96-1.52 2.27-2.43 2.3-2.53l-.07-.16a5 5 0 0 0-1.1-1.26 7 7 0 0 0-.7-.53 6 6 0 0 1-2.11-8.17m6.16 25.08v.03zM98.82 31.38a6 6 0 0 1 8.2-2.16L104 34.4l3.03-5.18.02.01.02.02.25.15.52.34c.41.28.96.69 1.57 1.2 1.16 1 2.8 2.62 3.97 4.87a12 12 0 0 1 .94 9.04c-.99 3.39-3.37 6.3-6.7 8.83l-.5.36q-.26.19-.69.57a6 6 0 0 0-1.43 1.78c.15.25.65.95 2.22 1.95a6 6 0 1 1-6.44 10.12c-3.54-2.25-6.18-5.06-7.27-8.58a12 12 0 0 1 .93-9.2 18 18 0 0 1 3.95-4.98 22 22 0 0 1 2.08-1.65l.03-.02c1.96-1.52 2.27-2.43 2.3-2.53l-.08-.16a5 5 0 0 0-1.1-1.26 7 7 0 0 0-.7-.53 6 6 0 0 1-2.1-8.17m6.16 25.08v.03zm20.74-25.08a6 6 0 0 1 8.2-2.16l-3.02 5.18 3.03-5.18.02.01.02.02.25.15.52.34q.63.43 1.57 1.2c1.16 1 2.8 2.62 3.97 4.87a12 12 0 0 1 .94 9.04c-.99 3.39-3.37 6.3-6.7 8.83q-.15.12-.33.23v.01l-.17.12q-.26.19-.69.57a6 6 0 0 0-1.43 1.78c.15.25.65.95 2.22 1.95a6 6 0 1 1-6.44 10.12c-3.54-2.25-6.18-5.06-7.28-8.58a12 12 0 0 1 .94-9.2 18 18 0 0 1 3.95-4.98 21 21 0 0 1 2.08-1.65l.02-.02c1.97-1.52 2.28-2.43 2.3-2.53l-.06-.16a5 5 0 0 0-1.1-1.26 7 7 0 0 0-.7-.53 6 6 0 0 1-2.11-8.17m6.16 25.08v.03z" clip-rule="evenodd"/><path fill="currentColor" fill-rule="evenodd" d="M146.24 135.5a6 6 0 0 1 7.56 3.84l26.8 82.2a6 6 0 1 1-11.4 3.72l-26.8-82.2a6 6 0 0 1 3.84-7.56m-32.07 0a6 6 0 0 1 3.83 7.57l-16.8 51.3a6 6 0 1 1-11.4-3.74l16.8-51.3a6 6 0 0 1 7.57-3.83" clip-rule="evenodd"/><path fill="currentColor" fill-rule="evenodd" d="M93.8 179.4a6 6 0 0 1 6-6h60.7a6 6 0 1 1 0 12H99.8a6 6 0 0 1-6-6m-3.7 18.2a9.9 9.9 0 1 0 0 19.8 9.9 9.9 0 0 0 0-19.8m-21.9 9.9a21.9 21.9 0 1 1 43.8 0 21.9 21.9 0 0 1-43.8 0M48.2 100a6 6 0 0 1 6-6H77a6 6 0 0 1 0 12H54.2a6 6 0 0 1-6-6" clip-rule="evenodd"/></svg>