<svg xmlns="http://www.w3.org/2000/svg" fill="none" viewBox="0 0 256 256"><path fill="currentColor" d="M203.8 70.16c0-2.93.02-4.76-.04-6.15-1.25-.08-3-.1-5.7-.1-3.17 0-5.13 0-6.5.14a76 76 0 0 0-.14 6.1v16.2l12.37 11.43zM46.24 186.42q-.01-.02-.23.15c-.32.27-.84.9-1.38 2.09-1.12 2.43-1.84 6.1-1.84 10.13s.72 7.7 1.84 10.14a6 6 0 0 0 1.38 2.08q.2.16.22.16H97.2v-24.75zm113.54-.01v24.76h50.96q.01.01.23-.16c.32-.27.84-.89 1.39-2.08 1.1-2.43 1.82-6.11 1.82-10.14s-.71-7.7-1.82-10.13a6 6 0 0 0-1.4-2.09l-.22-.15h-.04v-.09zm-12-13.65c0-2.98-.02-4.82-.14-6.1a78 78 0 0 0-6.5-.15h-25.3c-3.17 0-5.13.01-6.5.15a76 76 0 0 0-.14 6.1v38.4h38.58zm-97.35-56.92-6 6.17a9 9 0 0 0-1.81 3.81 17 17 0 0 0-.47 6.4c.26 2.13.9 3.58 1.58 4.38.51.61 1.18 1.07 2.55 1.07H210.7l.99-.1a3 3 0 0 0 1.77-.97c.66-.73 1.3-2.05 1.57-3.98a15 15 0 0 0-.35-5.91c-.52-1.95-1.28-3.18-1.84-3.71l-7.13-7.08-2.9-2.7H53.25zm15.48-14.61h123.9L162.7 76.16H92.67l-.2-.02zM128.5 44c-.33 0-1.37.13-4.03 2.19-2.64 2.04-5.91 5.21-10.76 9.9l-.06.06-8.48 8H151l-7.72-8.06-6.2-5.94a69 69 0 0 0-4.56-3.96c-2.66-2.06-3.7-2.19-4.03-2.19m31.3 130.4 51.05-.07q.12-.06.33-.26a8 8 0 0 0 1.44-2.5c1.04-2.6 1.64-6.28 1.57-10.17-.08-3.92-.82-7.4-1.9-9.68a6 6 0 0 0-1.33-1.92c-.2-.16-.25-.14-.25-.13H46.25q-.01-.02-.23.15c-.32.27-.84.9-1.38 2.09-1.12 2.43-1.84 6.1-1.84 10.13s.72 7.7 1.84 10.13a6 6 0 0 0 1.38 2.09l.23.15h50.96v-1.65c0-2.91-.02-5.62.23-7.77.24-2.12.86-5.02 3.17-7.26 2.28-2.2 5.17-2.77 7.29-3 2.17-.23 4.93-.22 7.95-.22h25.3c3.02 0 5.78-.01 7.95.22 2.12.23 5 .8 7.29 3 2.31 2.25 2.93 5.14 3.17 7.26.25 2.15.23 4.86.23 7.77zm56-65.4 24.43 24.28a6 6 0 1 1-8.46 8.51l-5.3-5.27a18.5 18.5 0 0 1-4.1 8.13l-.2.18q.52.86.92 1.7c2.07 4.3 3 9.63 3.1 14.65.1 5.03-.65 10.4-2.43 14.85a22 22 0 0 1-2.35 4.37 21 21 0 0 1 1.86 3.26c2.05 4.46 2.92 9.97 2.92 15.13s-.87 10.68-2.92 15.14c-1.65 3.59-4.66 7.58-9.45 8.83q-.98.39-2.1.4H46.29c-6.63 0-10.6-4.92-12.57-9.23-2.05-4.46-2.92-9.98-2.92-15.14s.88-10.67 2.93-15.13c.5-1.08 1.1-2.2 1.84-3.25a21 21 0 0 1-1.84-3.23c-2.05-4.46-2.93-9.98-2.93-15.14s.88-10.67 2.93-15.13q.5-1.1 1.18-2.2l-.37-.4a19 19 0 0 1-3.86-8.14l-5.38 5.55a6 6 0 0 1-8.6-8.37l25.29-26.03.1-.1.09-.07.03-.05.62-.59 62.58-59.1c4.61-4.46 8.43-8.17 11.7-10.71 3.27-2.53 6.98-4.7 11.39-4.7s8.12 2.17 11.39 4.7a82 82 0 0 1 5.37 4.65l6.39 6.12.16.17 17.4 18.2 10.2 9.42v-5.1c0-2.91-.01-5.62.24-7.76.24-2.12.85-5.03 3.17-7.27 2.28-2.21 5.17-2.77 7.28-3 2.18-.23 4.94-.22 7.96-.22 3 0 5.73-.01 7.85.23 2.04.23 5.04.82 7.26 3.33 2.1 2.38 2.44 5.35 2.56 7.22.13 1.98.06 4.67.06 7.47z"/></svg>