<svg xmlns="http://www.w3.org/2000/svg" fill="none" viewBox="0 0 256 256"><path fill="currentColor" fill-rule="evenodd" d="M135.95 113a4.67 4.67 0 0 1 3.3 7.96l-6.62 6.63v11.3l9.78-5.66 2.35-8.78a4.67 4.67 0 0 1 9.01 2.41l-1.62 6.05 6.22 1.51a4.66 4.66 0 0 1-1.1 9.21h-.07q-.54 0-1.05-.13l-9.03-2.22-9.83 5.68 9.83 5.67 9.03-2.21a4.65 4.65 0 0 1 5.64 3.42l.05.22a4.66 4.66 0 0 1-3.47 5.42l-6.22 1.51 1.62 6.05a4.67 4.67 0 0 1-3.26 5.7l-.03.01q-.57.16-1.16.18h-.05a4.66 4.66 0 0 1-4.5-3.46l-2.36-8.78-9.78-5.65v11.3l6.62 6.62.16.16a4.67 4.67 0 0 1-6.76 6.43l-4.69-4.7-4.69 4.7a4.67 4.67 0 0 1-6.6-6.6l6.63-6.62v-11.3l-9.78 5.65-2.36 8.8a4.7 4.7 0 0 1-4.5 3.45q-.61 0-1.2-.16h-.01a4.7 4.7 0 0 1-3.3-5.71l1.62-6.05-6.22-1.51a4.67 4.67 0 1 1 2.23-9.06l9.02 2.21 9.84-5.69-9.84-5.68-9.02 2.22q-.55.13-1.11.13a4.67 4.67 0 0 1-1.12-9.19l6.22-1.51-1.62-6.07a4.67 4.67 0 0 1 9.01-2.41l2.36 8.78 9.78 5.65v-11.3l-6.63-6.62a4.66 4.66 0 1 1 6.6-6.6l4.7 4.7 4.68-4.7.17-.15a4.7 4.7 0 0 1 3.13-1.21" clip-rule="evenodd"/><path fill="currentColor" d="M144 67a6 6 0 1 1 0 12h-32a6 6 0 1 1 0-12z"/><path fill="currentColor" fill-rule="evenodd" d="M220 42a22 22 0 0 1 22 22v116a22 22 0 0 1-22 22H36a22 22 0 0 1-22-22V64a22 22 0 0 1 22-22zM26 180a10 10 0 0 0 10 10h184a10 10 0 0 0 10-10v-76H26zM36 54a10 10 0 0 0-10 10v28h204V64a10 10 0 0 0-10-10z" clip-rule="evenodd"/></svg>