<svg xmlns="http://www.w3.org/2000/svg" fill="none" viewBox="0 0 256 256"><path fill="currentColor" d="M84.23 88.8c8.66 0 15.7-7.04 15.7-15.7s-7.04-15.7-15.7-15.7-15.7 7.04-15.7 15.7 7.04 15.7 15.7 15.7m0-19.4a3.7 3.7 0 1 1 0 7.4 3.7 3.7 0 0 1 0-7.4"/><path fill="currentColor" d="M209.59 110.29v-14.6a26.63 26.63 0 0 0-36.9-24.52 26.63 26.63 0 0 0-36.9 24.52v14.6h-18.78a16.3 16.3 0 0 0-16.1-14.06 16.3 16.3 0 0 0-16.1 14.06h-4.29A20.14 20.14 0 0 0 60.43 90.8a20.14 20.14 0 0 0-20.09 19.49h-7.33c-7.72 0-14 6.28-14 14v7.77c0 7.72 6.28 14 14 14h1.17q-.15.98-.16 2V208c0 7.72 6.28 14 14 14h160c7.72 0 14-6.28 14-14v-59.94q-.01-1.02-.16-2h1.17c7.72 0 14-6.28 14-14v-7.77c0-7.72-6.28-14-14-14zm15.42 21.77a2 2 0 0 1-2 2H105.63v-11.77h117.38a2 2 0 0 1 2 2zm-194.02 0v-7.77c0-1.1.9-2 2-2h21.42v11.77H32.99a2 2 0 0 1-2-2m29.42-29.25c4.26 0 7.76 3.3 8.09 7.49H52.32a8.14 8.14 0 0 1 8.09-7.49m40.49 5.42c1.54 0 2.89.83 3.64 2.06h-7.28a4.3 4.3 0 0 1 3.64-2.06m-7.27 44.59H66.41v-30.54h27.22zm74.75-57.13c0-4.04 1.65-7.69 4.3-10.34 2.66 2.65 4.3 6.3 4.3 10.34v14.6h-8.6zm29.21 0v14.6h-8.6v-14.6c0-5.35-1.59-10.33-4.32-14.5a14.6 14.6 0 0 1 12.92 14.5m-49.81 0c0-7.48 5.66-13.66 12.92-14.5a26.5 26.5 0 0 0-4.32 14.5v14.6h-8.6zM210 148.06V208a2 2 0 0 1-2 2H48a2 2 0 0 1-2-2v-59.94c0-1.1.9-2 2-2h6.41v12.76a6 6 0 0 0 6 6h39.22a6 6 0 0 0 6-6v-12.76H208a2 2 0 0 1 2 2"/></svg>