<svg xmlns="http://www.w3.org/2000/svg" fill="none" viewBox="0 0 256 256"><path fill="currentColor" fill-rule="evenodd" d="M97.42 48a31.6 31.6 0 0 0-31.61 31.61v27.81H208v-4.93a8 8 0 0 1 16 0V216a8 8 0 0 1-16 0v-1.94H48.05V216a8 8 0 0 1-16 0V102.49a8 8 0 0 1 16 0v4.93h1.76V79.61A47.6 47.6 0 0 1 97.42 32h21.16a8 8 0 0 1 7.35 11.16 7.98 7.98 0 0 1 11.12 4.72l1.56 4.81h5.05a8 8 0 0 1 4.7 14.47l-4.08 2.97 1.56 4.8a8 8 0 0 1-12.3 8.94l-4.1-2.96-4.1 2.96a8 8 0 0 1-12.3-8.94l1.56-4.8-4.08-2.97a8 8 0 0 1 4.7-14.47h5.05l1.56-4.81q.12-.36.26-.69-1.6.8-3.51.81zm-49.37 75.42v53.64h28.2v-53.64zm44.2 0v53.64h28.2v-53.64zm44.2 0v53.64h27.78v-53.64zm43.78 0v53.64H208v-53.64zM208 193.06H48.05v5H208z" clip-rule="evenodd"/></svg>