<svg xmlns="http://www.w3.org/2000/svg" fill="none" viewBox="0 0 256 256"><path fill="currentColor" d="M54.5 105c6.32 0 12.42 2.49 17.16 4.7 5.48 2.58 8.95 4.63 12.77 6.08 9.59 3.64 26.04 5.72 43.32 5.72s33.73-2.08 43.32-5.72c3.82-1.45 7.29-3.5 12.78-6.07 4.74-2.22 10.83-4.71 17.15-4.71h39a8 8 0 0 1 0 16h-5.77a59 59 0 0 1-1.38 16.4c-2.02 9.32-5.97 18.9-11.1 27.5s-11.63 16.57-18.95 22.47c-7.27 5.84-15.96 10.13-25.3 10.13h-2.82l4.86 6.89a8 8 0 1 1-13.08 9.22L155.1 197.5h-54.18l-11.37 16.11a8 8 0 1 1-13.08-9.22l4.87-6.89H78c-9.81 0-18.8-4.16-26.33-10.08-7.55-5.93-14.04-13.93-19.08-22.58a91 91 0 0 1-10.67-27.56A61 61 0 0 1 20.75 121H15a8 8 0 0 1 0-16zm76.77 58.5c-5.41.18-9.16 2.13-14.4 4.97-5.16 2.8-11.89 6.53-21.37 6.53-13.9 0-24.01-5.42-29.37-7.13-2.82-.9-4.66-1.07-6.5-.66-1.08.25-2.47.77-4.25 1.87a52 52 0 0 0 6.17 5.76c5.66 4.45 11.26 6.66 16.45 6.66h99.5c4.4 0 9.65-2.08 15.27-6.6 3.2-2.58 6.32-5.8 9.23-9.46a16 16 0 0 0-7-1.94c-2.15 0-4.09 1.15-9.32 4.5-4.57 2.91-11.17 7-20.18 7s-15.77-4.3-20.48-7c-5-2.86-8.67-4.67-13.75-4.5M36.82 121a43 43 0 0 0 .79 13.14 75 75 0 0 0 8.4 21.94 31 31 0 0 1 10.12-4.48c5.68-1.28 10.63-.32 14.86 1.03 8.77 2.8 13.92 6.37 24.51 6.37 5.02 0 8.54-1.77 13.75-4.6 5.14-2.78 11.9-6.58 21.48-6.9 9.92-.33 17 3.61 22.25 6.62 5.54 3.18 8.53 4.88 12.52 4.88s7.14-1.66 11.57-4.5c3.77-2.4 10.08-7 17.93-7 5.72 0 10.85 1.88 14.73 3.92l.92.5a75 75 0 0 0 6.56-17.9c1.07-4.94 1.36-9.33.96-13.02H201c-2.52 0-5.84 1.07-10.37 3.2-3.78 1.77-9.44 4.85-13.88 6.53-12.3 4.68-31.06 6.77-49 6.77s-36.7-2.09-49-6.77c-4.44-1.68-10.1-4.76-13.88-6.54-4.53-2.12-7.85-3.19-10.37-3.19zM159 77.5a10.5 10.5 0 1 0-21 0 10.5 10.5 0 0 0 21 0m-65-26a5.5 5.5 0 1 0-11 0 5.5 5.5 0 0 0 11 0m81 26a26.5 26.5 0 1 1-53 0 26.5 26.5 0 0 1 53 0m-65-26a21.5 21.5 0 1 1-43 0 21.5 21.5 0 0 1 43 0"/></svg>