<svg xmlns="http://www.w3.org/2000/svg" fill="none" viewBox="0 0 256 256"><path fill="currentColor" fill-rule="evenodd" d="M49.88 41.21c-1.95-8.97 4.72-17.85 14.23-17.85 6.54 0 12.12 4.36 13.94 10.45l9.7 22.15H191.1l.4-.01c8.26 0 14.95 6.7 14.95 14.95v1.66c0 8.26-6.7 14.95-14.95 14.95h-26.15v28.79c0 9.69-6.4 17.89-15.23 20.57l1.76 12.69h14.87a8 8 0 0 1 0 16h-12.66l8.21 59.3a8 8 0 1 1-15.84 2.2L137 158.83l-.04-.32-2.87-20.71h-33.52l-12.36 89.26a8 8 0 1 1-15.84-2.2l12.05-87.06H80.3a8 8 0 0 1-7.76-6.06l-22.6-90.29zm36.66 80.59h57.31a5.5 5.5 0 0 0 5.5-5.5V79.51a8 8 0 0 1 5.35-7.55H82.52a8 8 0 0 1-7.33-4.8l-5.42-12.38z" clip-rule="evenodd"/></svg>