<svg xmlns="http://www.w3.org/2000/svg" fill="none" viewBox="0 0 256 256"><path fill="currentColor" fill-rule="evenodd" d="M80.11 85.58H120V48.65a49.4 49.4 0 0 0-39.89 36.93M136 48.65v36.93h39.89A49.4 49.4 0 0 0 136 48.65m41.29 52.93H136v25.49h41.29zM120 127.07v-25.49H78.71v25.49zm-57.29.01V97.29A65.3 65.3 0 0 1 128 32a65.3 65.3 0 0 1 65.29 65.29v29.79h27.22a8 8 0 0 1 1.43 15.87v65.18a8 8 0 0 1-1.43 15.87H35.49a8 8 0 0 1-1.43-15.87v-65.18a8 8 0 0 1 1.43-15.87zm0 16H50.06V208h12.65zm16 64.92h12.64v-64.92H78.71zm28.64-64.92V208H120v-64.92zm28.65 0V208h12.65v-64.92zm41.29 0h-12.64V208h12.64zm16 64.92h12.65v-64.92h-12.65z" clip-rule="evenodd"/></svg>