<svg xmlns="http://www.w3.org/2000/svg" fill="none" viewBox="0 0 256 256"><path fill="currentColor" fill-rule="evenodd" d="M67.56 89.95a8 8 0 0 1 8-8h108.7a8 8 0 0 1 8 8 62.35 62.35 0 1 1-124.7 0m16.69 8a46.36 46.36 0 0 0 91.32 0zm66.1-67.5a8 8 0 0 1 10.95-2.83l-4.02 6.82 4.03-6.82.02.01.03.02.08.05a11 11 0 0 1 .8.52c.45.32 1.06.77 1.73 1.34a19 19 0 0 1 4.41 5.47 14 14 0 0 1 1.08 10.5c-1.14 3.94-3.85 7.18-7.38 9.86l-.55.39a8 8 0 0 0-.65.55q.27.22.68.46a8 8 0 0 1-8.63 13.48c-3.77-2.42-6.82-5.57-8.1-9.68a14 14 0 0 1 1.07-10.72 20 20 0 0 1 4.4-5.56 24 24 0 0 1 2.26-1.78q.62-.5.97-.84l-.45-.35a8 8 0 0 1-2.73-10.9m-53.77.01a8 8 0 0 1 10.95-2.83l-4.02 6.82 4.03-6.82.02.01.03.02.08.05a11 11 0 0 1 .8.52c.45.32 1.06.77 1.73 1.34a19 19 0 0 1 4.41 5.47 14 14 0 0 1 1.08 10.5c-1.13 3.94-3.85 7.18-7.38 9.86l-.55.39a8 8 0 0 0-.65.55q.28.22.67.46a8 8 0 0 1-8.62 13.48c-3.77-2.42-6.82-5.57-8.1-9.68a14 14 0 0 1 1.07-10.72 20 20 0 0 1 4.4-5.56 24 24 0 0 1 2.26-1.78q.63-.5.97-.84l-.45-.35a8 8 0 0 1-2.73-10.9m26.89.01a8 8 0 0 1 10.95-2.83l-4.02 6.82 4.03-6.82.02.01.03.02.08.05a11 11 0 0 1 .8.52c.45.32 1.06.77 1.73 1.34a19 19 0 0 1 4.41 5.47 14 14 0 0 1 1.08 10.5c-1.14 3.94-3.85 7.18-7.38 9.86l-.55.39a8 8 0 0 0-.65.55q.27.22.68.46a8 8 0 0 1-8.64 13.48c-3.76-2.42-6.8-5.57-8.1-9.68a14 14 0 0 1 1.08-10.72 20 20 0 0 1 4.4-5.56 24 24 0 0 1 2.26-1.78q.62-.5.97-.84l-.45-.35a8 8 0 0 1-2.73-10.9m11.22 25.3" clip-rule="evenodd"/><path fill="currentColor" fill-rule="evenodd" d="M145.12 133.72a8 8 0 0 1 10.09 5.13L182 221a8 8 0 0 1-15.22 4.96L140 143.81a8 8 0 0 1 5.13-10.09m-30.88.01a8 8 0 0 1 5.13 10.08l-16.73 51.27a8 8 0 1 1-15.22-4.96l16.74-51.27a8 8 0 0 1 10.08-5.12" clip-rule="evenodd"/><path fill="currentColor" fill-rule="evenodd" d="M91.33 179.46a8 8 0 0 1 8-8h60.71a8 8 0 0 1 0 16H99.33a8 8 0 0 1-8-8" clip-rule="evenodd"/><path fill="currentColor" fill-rule="evenodd" d="M89.64 199.67a7.91 7.91 0 1 0 0 15.82 7.91 7.91 0 0 0 0-15.82m-23.91 7.91a23.91 23.91 0 1 1 47.82 0 23.91 23.91 0 0 1-47.82 0m-20-107.48a8 8 0 0 1 8-8h22.78a8 8 0 1 1 0 16H53.73a8 8 0 0 1-8-8" clip-rule="evenodd"/></svg>