<svg xmlns="http://www.w3.org/2000/svg" fill="none" viewBox="0 0 256 256"><path fill="currentColor" d="m73.26 227.74-7.97.61zm110.21 0 7.98.61zM192 116.21l-7.98-.61zm-127.26 0 7.98-.61zm-7.31 93.25a8 8 0 0 0 11.14 11.49L63 215.2zM117.01 25l3.2-7.33-7.33-3.2-3.2 7.33zm39.95 17.42 7.33 3.2 3.2-7.33-7.34-3.2zm-45.76-4.1-7.33-3.2zm39.95 17.42 7.33 3.2zM95.23 81.29v-8h-.38l-.38.04zm31.78 9.99-1.18-7.92zm42.21-3.64-5.39 5.91zm-99.88 23.61v8H187.4v-16H69.34zM192 116.21l-7.98-.61-8.52 111.53 7.97.61 7.98.61 8.52-111.53zM178.88 232v-8H77.86v16h101.02zm-105.62-4.26 7.98-.6-8.52-111.54-7.98.6-7.98.62 8.53 111.53zm4.6 4.26v-8a3.4 3.4 0 0 1 3.38 3.13l-7.98.61-7.97.61A12.6 12.6 0 0 0 77.86 240zm105.61-4.26-7.97-.6a3.4 3.4 0 0 1 3.38-3.14v16a12.6 12.6 0 0 0 12.57-11.65zm3.93-116.49v8a3.4 3.4 0 0 1-3.38-3.65l7.98.6 7.97.62a12.6 12.6 0 0 0-12.57-13.57zm-118.06 0v-8a12.6 12.6 0 0 0-12.58 13.57l7.98-.61 7.98-.61a3.4 3.4 0 0 1-3.38 3.65zm73.1 41.76h-8c0 3.6-2.92 6.53-6.52 6.53v16A22.53 22.53 0 0 0 150.44 153zm-14.52 14.53v-8a6.53 6.53 0 0 1-6.53-6.53h-16a22.53 22.53 0 0 0 22.53 22.53zM113.39 153h8c0-3.6 2.92-6.52 6.53-6.52v-16A22.53 22.53 0 0 0 105.39 153zm14.53-14.52v8c3.6 0 6.52 2.92 6.52 6.52h16a22.53 22.53 0 0 0-22.52-22.52zM113.72 166l-5.56-5.74-50.73 49.2L63 215.2l5.57 5.75 50.73-49.2zm3.3-141-3.2 7.33 39.94 17.43 3.2-7.34 3.2-7.33-39.95-17.42zm39.94 17.42-7.34-3.2-5.8 13.32 7.33 3.2 7.33 3.2 5.81-13.32zm-45.76-4.1 7.34 3.2 5.8-13.32-7.33-3.2-7.33-3.2-5.8 13.32zM122.48 67l3.2-7.33a13.8 13.8 0 0 1-7.13-18.16l-7.34-3.2-7.33-3.2a29.8 29.8 0 0 0 15.4 39.22zm28.68-11.26-7.33-3.2a13.8 13.8 0 0 1-18.16 7.13l-3.2 7.33-3.2 7.33a29.8 29.8 0 0 0 39.22-15.4zm-78.62 51.42 7.87 1.47C82.86 95.45 91 89.73 96 89.25l-.76-7.96-.76-7.96c-14.06 1.34-26.44 14.32-29.8 32.37zm22.7-25.87v8c4.33 0 8.16 1.84 13.41 4.61 4.37 2.3 11.53 6.48 19.54 5.29L127 91.28l-1.18-7.92c-1.8.27-3.94-.56-9.72-3.6-4.89-2.59-12.04-6.47-20.88-6.47zm31.78 9.99 1.17 7.91c3.78-.56 7.88-1.8 11.53-2.96 3.87-1.22 7.45-2.4 10.97-3.25 7.6-1.84 11.22-1.19 13.15.57l5.4-5.9 5.39-5.91c-8.51-7.77-19.87-6.21-27.71-4.31-4.2 1.02-8.45 2.42-12 3.54-3.79 1.2-6.73 2.05-9.08 2.4zm42.21-3.64-5.39 5.91a71 71 0 0 1 6.5 7.45c2.77 3.57 5.07 7.07 6.1 9.4l7.32-3.24 7.32-3.23c-1.85-4.18-5.14-8.92-8.1-12.73a84 84 0 0 0-8.35-9.46zm-58.32-15.7-3.26 7.3 13.27 5.9 3.26-7.3 3.25-7.3-13.27-5.92z"/></svg>