<svg xmlns="http://www.w3.org/2000/svg" width="256" height="256" fill="currentColor"><path fill-rule="evenodd" d="M85.226 21c10.87.002 19.727 4.76 26.187 8.163 7.348 3.87 10.94 5.465 14.263 4.975 3.296-.488 7.328-1.663 12.262-3.213 4.71-1.48 10.188-3.283 15.575-4.588 10.234-2.477 23.899-4.172 34.025 5.05 2.924 2.665 7.79 8.985 12.05 15.05 3.164 4.506 6.49 9.59 8.925 13.963 6.904 1.265 12.005 7.564 11.45 14.85l-11.162 145.8c-.563 7.321-6.68 12.949-14 12.95H62.463c-7.321 0-13.438-5.629-14-12.95l-.812-10.55c-3.17 2.29-7.6 2.004-10.4-.887-3.073-3.175-2.987-8.24.187-11.313l8.637-8.375L37.3 75.25c-.528-6.939 4.073-12.984 10.476-14.638 4.458-22.457 19.861-37.975 36.687-39.574l.375-.038zm-24.2 154.463 42.587-41.213a26.8 26.8 0 0 1-2.6-11.5c.002-14.92 12.115-26.987 27.025-26.987s27.023 12.068 27.025 26.987c0 14.921-12.114 26.987-27.025 26.988-4.967 0-9.61-1.363-13.612-3.701l-51.813 50.151L64.288 218h128.688l10.862-141.837H53.426zm67.012-63.7c-6.107 0-11.023 4.936-11.025 10.987 0 6.052 4.917 10.988 11.025 10.988 6.107-.001 11.025-4.936 11.025-10.988-.002-6.05-4.919-10.987-11.025-10.987M85.6 37.013c-7.294.908-17.16 8.25-21.274 23.15H189.6a206 206 0 0 0-3.1-4.538c-4.384-6.242-8.313-11.1-9.738-12.4-3.549-3.233-9.507-3.754-19.487-1.337-4.722 1.143-9.511 2.72-14.538 4.3-4.802 1.508-9.995 3.075-14.725 3.774-9.52 1.406-18.123-3.52-24.062-6.65-6.69-3.524-12.138-6.194-18.35-6.3" clip-rule="evenodd"/></svg>