<svg xmlns="http://www.w3.org/2000/svg" fill="none" viewBox="0 0 256 256"><path fill="currentColor" d="m201.8 67.96.01-1.85-.01-.2c-1.04-.02-2.25 0-3.74 0-2 0-3.48 0-4.61.04-.03 1.04-.04 2.4-.04 4.21v15.31l8.39 7.74zm-40 120.44v20.76h48.16q.23-.3.59-1.07c.96-2.1 1.64-5.47 1.64-9.3s-.68-7.21-1.64-9.3c-.27-.6-.5-.95-.65-1.15zm-45.95-19.89c-2.01 0-3.49 0-4.61.04-.03 1.04-.04 2.4-.04 4.21v36.4h34.6v-36.4c0-1.82-.02-3.17-.05-4.21-1.12-.03-2.6-.04-4.6-.04zm-69.4 20.98c-.96 2.09-1.64 5.46-1.64 9.3s.68 7.2 1.64 9.3q.36.77.59 1.07H95.2v-20.75H47.05c-.15.22-.36.55-.6 1.08m163.86-1.15q.17.05.39.07v-.07zm-163.86-35.6c-.96 2.09-1.64 5.46-1.64 9.3 0 3.83.68 7.2 1.64 9.3q.37.78.6 1.07H95.2c0-2.74 0-5.45.25-7.65.26-2.25.95-5.73 3.78-8.47 2.77-2.69 6.23-3.3 8.46-3.54 2.3-.25 5.19-.24 8.16-.24h25.3c2.97 0 5.85 0 8.16.24 2.23.24 5.69.85 8.47 3.54 2.82 2.74 3.51 6.22 3.77 8.47.25 2.2.24 4.9.24 7.64l48.2-.06c.19-.28.47-.75.77-1.52.92-2.28 1.5-5.68 1.43-9.38-.07-3.73-.78-6.91-1.72-8.85q-.31-.65-.52-.93H47.05c-.15.22-.36.55-.6 1.08m-.92-28.8a9 9 0 0 0-.98 2.4 15 15 0 0 0-.41 5.63c.23 1.88.77 2.93 1.12 3.34.14.16.26.35 1.04.35h164.4l.95-.15a1 1 0 0 0 .32-.25c.33-.35.85-1.26 1.1-2.94a13 13 0 0 0-.32-5.1 6.6 6.6 0 0 0-1.29-2.78l-7.31-7.26-2.11-1.96H54.08zm24.85-24.72H184.7l-22.8-21.06H92.96zM128.5 46c.35 0-.25-.2-2.81 1.77-2.53 1.97-5.71 5.03-10.59 9.75l-.11.12-4.85 4.52h36.18l-4.53-4.75c-4.81-4.66-7.97-7.69-10.48-9.63-2.56-1.99-3.16-1.78-2.81-1.78m89.3 62.16 23.84 23.7a8 8 0 0 1-11.28 11.35l-2.97-2.96a20 20 0 0 1-2.8 4.82l.31.6c2.23 4.63 3.19 10.27 3.29 15.47.1 5.23-.66 10.87-2.56 15.64a25 25 0 0 1-1.84 3.65q.75 1.21 1.3 2.4c2.2 4.8 3.1 10.6 3.1 15.96 0 5.35-.9 11.17-3.1 15.97-1.78 3.89-5.25 8.6-10.97 9.99-.76.24-1.56.41-2.4.41H46.28c-7.8 0-12.28-5.8-14.39-10.4-2.2-4.8-3.09-10.62-3.09-15.97s.9-11.17 3.1-15.97q.54-1.18 1.3-2.4-.76-1.24-1.3-2.4c-2.2-4.8-3.1-10.63-3.1-15.98s.9-11.18 3.1-15.98q.27-.56.58-1.15a20 20 0 0 1-2.73-4.9l-3.05 3.13a8 8 0 0 1-11.42-11.2l16.39-16.72 1.52-1.58q.71-.93 1.58-1.77c.22-.22.49-.4.73-.58L51.9 94.6l.12-.12.14-.13 51.93-48.42c4.55-4.41 8.44-8.2 11.8-10.8 3.38-2.62 7.53-5.13 12.62-5.13 5.1 0 9.24 2.51 12.61 5.13a83 83 0 0 1 5.51 4.76l6.42 6.15.11.1.1.11L170.7 64.5l6.71 6.19v-.53c0-2.86-.01-5.71.25-8 .26-2.25.94-5.73 3.77-8.47 2.77-2.69 6.23-3.3 8.46-3.54 2.3-.25 5.2-.24 8.17-.24 2.95 0 5.81-.01 8.06.24 2.16.24 5.81.9 8.54 3.99 2.59 2.92 2.94 6.5 3.06 8.42.14 2.07.08 4.9.08 7.6z"/></svg>