<svg xmlns="http://www.w3.org/2000/svg" width="256" height="256" fill="currentColor"><path d="M214.646 32H41.354a15.63 15.63 0 0 0-11.14 4.686c-2.954 3-4.614 7.07-4.614 11.314v160c-.018 3.05.831 6.04 2.445 8.612a15.7 15.7 0 0 0 6.653 5.888 15.7 15.7 0 0 0 6.656 1.5 15.5 15.5 0 0 0 10.092-3.78l.089-.07L83.693 192h130.953c4.178 0 8.185-1.686 11.14-4.686A16.13 16.13 0 0 0 230.4 176V48a16.13 16.13 0 0 0-4.614-11.314A15.63 15.63 0 0 0 214.646 32m0 144H80.739a7.8 7.8 0 0 0-5.15 1.95L41.354 208V48h173.292z"/><path d="M120 72v40a8 8 0 1 0 16 0V72a8.001 8.001 0 0 0-13.657-5.657A8 8 0 0 0 120 72M137.978 154.667a11.996 11.996 0 0 0-1.493-15.152 11.996 11.996 0 0 0-15.152-1.493 12.001 12.001 0 1 0 16.645 16.645"/></svg>