<svg xmlns="http://www.w3.org/2000/svg" fill="none" viewBox="0 0 256 256"><path fill="currentColor" fill-rule="evenodd" d="M78.72 32.64a8 8 0 0 1 8.79 2.01L128 78.35l40.5-43.7a8 8 0 0 1 13.86 5.44v9.28l8.49-4.92a8 8 0 0 1 12.01 6.92v10.92l11.12-2.91A8 8 0 0 1 224 67.12V192.9a8 8 0 0 1-5.98 7.74l-88 23.01a8 8 0 0 1-4.04 0l-88-23.01A8 8 0 0 1 32 192.9V67.12a8 8 0 0 1 10.02-7.74l11.12 2.9v-10.9a8 8 0 0 1 12.01-6.92l8.49 4.92V40.1a8 8 0 0 1 5.08-7.45m-5.78 34.82-3.8-2.2v1.2zM120 96.3 48 77.48v109.24l72 18.83zm16 109.24 72-18.83V77.48l-72 18.83zm50.86-139.09v-1.2l-3.8 2.2zm5.53 19.5a8 8 0 0 1 10.02 7.74v18.87a8 8 0 0 1-5.98 7.74l-44.82 11.72a8 8 0 0 1-10.02-7.74v-18.87a8 8 0 0 1 5.98-7.74zm-34.8 25.64v2.33l28.82-7.54v-2.33zM53.4 93.22a8 8 0 0 1 9.76-5.72l44.82 11.72a8 8 0 1 1-4.04 15.48l-44.82-11.72a8 8 0 0 1-5.72-9.76m0 20.17a8 8 0 0 1 9.76-5.72l26.94 7.04a8 8 0 1 1-4.04 15.48l-26.94-7.04a8 8 0 0 1-5.72-9.76m0 19.86a8 8 0 0 1 9.76-5.72l26.94 7.04a8 8 0 1 1-4.04 15.48l-26.94-7.04a8 8 0 0 1-5.72-9.76m119.13-3.13a8 8 0 0 1 7.53 5.29l2.5 6.96 10.8-2.91a8 8 0 0 1 7.45 13.65l-10.84 9.81 3.19 8.84a8 8 0 0 1-10.47 10.15l-9.54-3.77-11.12 10.07a8 8 0 0 1-12.9-8.63l3.44-9.58-6.95-2.74a8 8 0 0 1 .86-15.16l13.87-3.75 4.65-12.94a8 8 0 0 1 7.53-5.29m-.65 30.76q.37.02.76.08v-.89q-.34.44-.76.81" clip-rule="evenodd"/></svg>