<svg xmlns="http://www.w3.org/2000/svg" fill="none" viewBox="0 0 256 256"><path fill="currentColor" d="M38 62h43.5v16H38v37.25c19.05 1.11 33.26 5.84 43.5 13.38 11.95 8.8 17.55 20.73 19.56 32.63 3.07 18.17-2.12 37.05-5.62 47.34a91.4 91.4 0 0 0 64.81.13c-3.5-10.46-8.3-28.8-5.31-46.47 2-11.9 7.6-23.84 19.56-32.63 10.24-7.54 24.45-12.27 43.5-13.38V78h-45.5V62H218V42H38zm180 70.3c-16.4 1.08-27.1 5.12-34.01 10.21-7.95 5.85-11.8 13.7-13.28 22.42-2.2 13.09 1.1 27.28 4.08 36.7 21.28-12.93 37.98-35.52 43.21-67.8zm-180 1.52c5.21 32.15 21.78 54.7 42.94 67.67 3.04-9.42 6.63-24.07 4.35-37.56-1.47-8.71-5.33-16.57-13.28-22.42-6.92-5.09-17.6-9.13-34.01-10.21zm196 .37q0 .96-.15 1.88c-20.15 126.07-191.55 126.07-211.7 0q-.15-.93-.15-1.88V38a12 12 0 0 1 12-12h188a12 12 0 0 1 12 12z"/></svg>