<svg xmlns="http://www.w3.org/2000/svg" fill="none" viewBox="0 0 256 256"><path fill="currentColor" fill-rule="evenodd" d="M32 48a16 16 0 0 1 16-16h160a16 16 0 0 1 16 16v160a16 16 0 0 1-16 16H48a16 16 0 0 1-16-16zm176 0H48v160h160z" clip-rule="evenodd"/><path fill="currentColor" fill-rule="evenodd" d="M32 81.08a8 8 0 0 1 8-8h176a8 8 0 0 1 0 16H40a8 8 0 0 1-8-8" clip-rule="evenodd"/><path fill="currentColor" fill-rule="evenodd" d="M96.78 81.08a8 8 0 0 1 8-8h46.43a8 8 0 0 1 8 8v19.46a8 8 0 0 1-8 8h-46.43a8 8 0 0 1-8-8zm16 8v3.46h30.43v-3.46z" clip-rule="evenodd"/><path fill="currentColor" d="M128 71.12a10.64 10.64 0 1 0 0-21.28 10.64 10.64 0 0 0 0 21.28"/><path fill="currentColor" fill-rule="evenodd" d="M143.22 60.48a8 8 0 0 1 8-8h13.75a8 8 0 0 1 0 16h-13.75a8 8 0 0 1-8-8m32.75 0a8 8 0 0 1 8-8h13.75a8 8 0 0 1 0 16h-13.75a8 8 0 0 1-8-8m-85.82 88.85c-10.73 0-18.85 8.26-18.85 17.74s8.12 17.74 18.85 17.74S109 176.55 109 167.07s-8.12-17.74-18.85-17.74M55.3 167.07c0-18.95 15.92-33.74 34.85-33.74S125 148.13 125 167.07s-15.92 33.74-34.85 33.74-34.85-14.8-34.85-33.74" clip-rule="evenodd"/><path fill="currentColor" fill-rule="evenodd" d="M118.19 141.32a8 8 0 0 1 8-8c8.2 0 14.39 5.31 18.12 11.31 3.8 6.12 5.9 14.07 5.9 22.43s-2.1 16.3-5.9 22.43c-3.73 6-9.92 11.31-18.12 11.31a8 8 0 0 1 0-16c.65 0 2.47-.45 4.54-3.77 1.99-3.2 3.48-8.12 3.48-13.97s-1.5-10.77-3.48-13.97c-2.07-3.32-3.89-3.77-4.54-3.77a8 8 0 0 1-8-8" clip-rule="evenodd"/><path fill="currentColor" fill-rule="evenodd" d="M142.07 141.32a8 8 0 0 1 8-8c8.2 0 14.39 5.31 18.12 11.31 3.8 6.12 5.9 14.07 5.9 22.43s-2.1 16.3-5.9 22.43c-3.73 6-9.92 11.31-18.12 11.31a8 8 0 0 1 0-16c.65 0 2.47-.45 4.54-3.77 1.99-3.2 3.48-8.12 3.48-13.97s-1.5-10.77-3.48-13.97c-2.07-3.32-3.89-3.77-4.54-3.77a8 8 0 0 1-8-8" clip-rule="evenodd"/><path fill="currentColor" fill-rule="evenodd" d="M165.95 141.32a8 8 0 0 1 8-8c8.2 0 14.39 5.31 18.12 11.31 3.8 6.12 5.9 14.07 5.9 22.43s-2.1 16.3-5.9 22.43c-3.73 6-9.92 11.31-18.12 11.31a8 8 0 0 1 0-16c.65 0 2.47-.45 4.54-3.77 1.99-3.2 3.48-8.12 3.48-13.97s-1.5-10.77-3.48-13.97c-2.07-3.32-3.89-3.77-4.54-3.77a8 8 0 0 1-8-8" clip-rule="evenodd"/></svg>