<svg xmlns="http://www.w3.org/2000/svg" fill="none" viewBox="0 0 256 256"><path fill="currentColor" fill-rule="evenodd" d="M108.71 114.68a8 8 0 0 0-10.52-12.05l5.21 6.07-5.2-6.07h-.02l-.02.02-.03.03-.07.07-.74.7q-.65.63-1.55 1.74a22 22 0 0 0-3.59 6.4 19.5 19.5 0 0 0-.76 10.35c.78 3.95 2.78 7.79 6.03 11.4l.51.54a9 9 0 0 1 1.77 2.82c.26.75.3 1.32.2 1.82-.1.45-.45 1.48-2.01 2.96a8 8 0 0 0 10.97 11.64c3.58-3.37 5.81-7.18 6.68-11.26.86-4.03.25-7.67-.77-10.53a24 24 0 0 0-5.6-8.85c-1.52-1.74-1.95-2.98-2.09-3.65-.13-.7-.06-1.3.16-1.9a6 6 0 0 1 1.4-2.22zm49 0a8 8 0 0 0-10.52-12.05l5.21 6.07-5.2-6.07h-.02l-.02.02-.03.03-.27.24-.54.53q-.65.63-1.55 1.74a22 22 0 0 0-3.59 6.4 19.5 19.5 0 0 0-.76 10.35c.78 3.95 2.78 7.79 6.03 11.4l.51.54a9 9 0 0 1 1.77 2.82c.26.75.3 1.32.2 1.82-.1.45-.44 1.48-2.02 2.96a8 8 0 0 0 10.97 11.64c3.59-3.37 5.82-7.18 6.69-11.26.86-4.03.25-7.67-.77-10.53a24 24 0 0 0-5.6-8.85c-1.52-1.74-1.95-2.98-2.09-3.65-.13-.7-.06-1.3.16-1.9a6 6 0 0 1 1.4-2.22zm-24.5 0a8 8 0 0 0-10.52-12.05l5.21 6.07-5.2-6.07h-.02l-.02.02-.03.03-.27.24-.54.53q-.65.63-1.55 1.74a22 22 0 0 0-3.59 6.4 19.5 19.5 0 0 0-.76 10.35c.78 3.95 2.78 7.79 6.03 11.4l.51.54a9 9 0 0 1 1.77 2.82c.26.75.3 1.32.2 1.82-.1.45-.45 1.48-2.02 2.96a8 8 0 0 0 10.97 11.64c3.59-3.37 5.82-7.18 6.69-11.26.86-4.03.25-7.67-.77-10.53a24 24 0 0 0-5.6-8.85c-1.52-1.74-1.95-2.98-2.09-3.65-.13-.7-.06-1.3.16-1.9a6 6 0 0 1 1.4-2.22z" clip-rule="evenodd"/><path fill="currentColor" fill-rule="evenodd" d="M32 48a16 16 0 0 1 16-16h160a16 16 0 0 1 16 16v160a16 16 0 0 1-16 16H48a16 16 0 0 1-16-16zm176 0H48v160h160z" clip-rule="evenodd"/><path fill="currentColor" fill-rule="evenodd" d="M128 80a48 48 0 1 0 0 96 48 48 0 0 0 0-96m-64 48a64 64 0 1 1 128 0 64 64 0 0 1-128 0" clip-rule="evenodd"/><path fill="currentColor" d="M188 79.6a11.6 11.6 0 1 0 0-23.2 11.6 11.6 0 0 0 0 23.2"/></svg>