<svg xmlns="http://www.w3.org/2000/svg" fill="none" viewBox="0 0 256 256"><path fill="currentColor" d="M136.23 112a5.66 5.66 0 0 1 3.73 9.67l-6.34 6.33v9.15l7.93-4.58 2.25-8.38a5.7 5.7 0 0 1 2.63-3.44l.25-.14a5.66 5.66 0 0 1 8.06 6.5l-1.36 5.07 5.22 1.27c1.27.3 2.39 1 3.19 2.02l.16.21.14.22a5.66 5.66 0 0 1-4.82 8.73h-.1a6 6 0 0 1-1.26-.16l-8.64-2.12-7.98 4.6 7.98 4.62 8.63-2.12q.96-.24 1.94-.13l.27.03.28.05q.82.17 1.56.57l.24.13.24.15q.7.47 1.22 1.13l.17.22.16.22a5.64 5.64 0 0 1-3.37 8.63l-5.23 1.27 1.36 5.06a5.66 5.66 0 0 1-3.95 6.92l-.05.02q-.69.19-1.4.2h-.08a5.66 5.66 0 0 1-5.46-4.19l-2.25-8.39-7.93-4.57v9.15l6.34 6.33.19.2q.56.62.92 1.38l.12.26.1.26a5.66 5.66 0 0 1-9.34 5.91l-3.99-3.99-3.98 4a5.65 5.65 0 0 1-9.67-4.02q0-1.12.43-2.16l.11-.26q.42-.89 1.12-1.58l6.33-6.33v-9.15l-7.92 4.57-2.25 8.4a5.66 5.66 0 0 1-6.93 4h-.01a5.67 5.67 0 0 1-4-6.94l1.35-5.06-5.22-1.27a5.7 5.7 0 0 1-4.16-6.86l.08-.27a5.7 5.7 0 0 1 2.5-3.22l.23-.14a5.7 5.7 0 0 1 4.05-.51l8.63 2.12 7.99-4.63-7.99-4.6-8.63 2.11a5.7 5.7 0 0 1-6.98-4.82 5.7 5.7 0 0 1 .97-3.9l.15-.21a5.7 5.7 0 0 1 3.16-2.07l5.22-1.27-1.36-5.08c-.38-1.45-.18-3 .57-4.3l.15-.24a5.66 5.66 0 0 1 7.34-1.97l.25.14.24.15a5.7 5.7 0 0 1 2.4 3.29l2.25 8.38 7.92 4.58V128l-6.33-6.33c-1-1-1.59-2.33-1.66-3.73v-.55q.06-.99.43-1.9l.11-.25a5.7 5.7 0 0 1 5.12-3.24h.28c1.4.08 2.73.66 3.73 1.66l3.98 3.98 3.99-3.98a5.7 5.7 0 0 1 4-1.66zM144 65a8 8 0 0 1 0 16h-32a8 8 0 0 1 0-16z"/><path fill="currentColor" fill-rule="evenodd" d="M220 40a24 24 0 0 1 24 24v116a24 24 0 0 1-24 24H36a24 24 0 0 1-24-24V64a24 24 0 0 1 24-24zM28 180a8 8 0 0 0 8 8h184a8 8 0 0 0 8-8v-74H28zm8-124a8 8 0 0 0-8 8v26h200V64a8 8 0 0 0-8-8z" clip-rule="evenodd"/></svg>