<svg xmlns="http://www.w3.org/2000/svg" fill="none" viewBox="0 0 256 256"><path fill="currentColor" d="M196 127.94c-.18.01-.36.06-.55.06H60.55c-.19 0-.37-.05-.55-.06V216c0 9.23 7 16 14.8 16h106.4c7.8 0 14.8-6.77 14.8-16zM164.65 152v-8a8 8 0 0 1 16 0v8a8 8 0 0 1-16 0m0-56v-8a8 8 0 0 1 16 0v8a8 8 0 0 1-16 0M196 40c0-9.23-7-16-14.8-16H74.8C67 24 60 30.77 60 40v72.05l.55-.05h134.9l.55.05zm16 176c0 17.28-13.4 32-30.8 32H74.8C57.4 248 44 233.28 44 216V40C44 22.72 57.4 8 74.8 8h106.4C198.6 8 212 22.72 212 40z"/></svg>