<svg xmlns="http://www.w3.org/2000/svg" fill="none" viewBox="0 0 256 256"><path fill="currentColor" fill-rule="evenodd" d="M101.93 73.1c0 9.76-7.94 17.7-17.7 17.7s-17.7-7.94-17.7-17.7 7.94-17.7 17.7-17.7 17.7 7.94 17.7 17.7m-16 0a1.7 1.7 0 1 0-3.4 0 1.7 1.7 0 0 0 3.4 0" clip-rule="evenodd"/><path fill="currentColor" fill-rule="evenodd" d="M211.59 108.29h11.42c8.82 0 16.01 7.18 16.01 16v7.77A16 16 0 0 1 224.01 148v60c0 8.82-7.18 16-16 16h-160c-8.82 0-16-7.18-16-16v-60A16 16 0 0 1 17 132.07v-7.77c0-8.82 7.18-16 16-16h5.46a22.15 22.15 0 0 1 21.96-19.5 22.15 22.15 0 0 1 21.96 19.5h.77a18.3 18.3 0 0 1 17.76-14.06c8.62 0 15.85 6 17.76 14.06h15.12V95.7a28.63 28.63 0 0 1 38.9-26.67 28.63 28.63 0 0 1 38.9 26.67zM68.41 150.82h23.22v-26.53H68.41zm154.6-26.53H107.63v7.77h115.38zm-50.33-35.84a12.6 12.6 0 0 0-2.3 7.24v12.6h4.6v-12.6c0-2.7-.85-5.2-2.3-7.24m22.91 19.84v-12.6c0-4.9-2.81-9.14-6.9-11.23a28 28 0 0 1 2.3 11.23v12.6zm-38.91-23.83a12.6 12.6 0 0 0-6.9 11.23v12.6h4.6v-12.6c0-4 .82-7.78 2.3-11.23M65.93 108.3a6.12 6.12 0 0 0-11.03 0zm-13.52 15.99H32.99v7.77h19.42zM48 207.99h160v-59.93H107.63v10.76a8 8 0 0 1-8 8H60.41a8 8 0 0 1-8-8v-10.76H48z" clip-rule="evenodd"/></svg>