<svg xmlns="http://www.w3.org/2000/svg" fill="none" viewBox="0 0 256 256"><path fill="currentColor" fill-rule="evenodd" d="M52.51 85.96a4.5 4.5 0 1 0 0 9.02l142.92.01a8 8 0 0 1 0 16l-142.92-.01m-16.25-8A20.5 20.5 0 0 1 52.5 69.96h138.48a33.01 33.01 0 0 1 25.15 54.39 20.47 20.47 0 0 1 3.6 28.65 20.5 20.5 0 0 1-16.83 33H65.02a33.01 33.01 0 0 1-25.16-54.37 20.47 20.47 0 0 1-3.6-28.65m16.25 8a4.5 4.5 0 1 0 0 9h138.48a17.01 17.01 0 0 0 0-34.02H52.51m12.5 50.02a17.01 17.01 0 0 0 0 34.02h138.82a4.5 4.5 0 0 0-.34-9l-142.92.01a8 8 0 0 1 0-16l142.92-.01a4.5 4.5 0 1 0 0-9.02z" clip-rule="evenodd"/></svg>