<svg xmlns="http://www.w3.org/2000/svg" fill="none" viewBox="0 0 256 256"><path fill="currentColor" d="M188 90.5c0-35.62-24.88-60.5-60.5-60.5S67 54.88 67 90.5c0 10.36 3.21 26.04 7.99 41.44 4.39 14.15 9.75 26.85 14.24 34.06h76.95c4.33-7.3 9.58-20.01 13.9-34.1 4.7-15.4 7.92-31.06 7.92-41.4M134 133a6 6 0 1 0-12 0 6 6 0 0 0 12 0m-7.14-96c30.16-.54 51.85 21.68 53.96 49.9.55 7.25-5.4 12.6-11.83 12.6H86c-6.47 0-12.35-5.37-11.84-12.58 2.03-28.2 22.8-49.39 52.7-49.92m.28 16c-19.68.35-33.3 12.7-36.43 30.5h29.9l15.65-16.08a8 8 0 0 1 11.48 11.16l-4.8 4.92h21.31c-3.3-18.02-17.67-30.85-37.11-30.5M150 133a22 22 0 1 1-44 0 22 22 0 0 1 44 0m54-42.5c0 12.74-3.76 30.2-8.62 46.07-4.85 15.84-11.22 31.44-17.08 40.24a11.7 11.7 0 0 1-9.8 5.19H138v74h-16v-74H86.94c-3.59 0-7.32-1.63-9.65-4.97-6.16-8.83-12.66-24.5-17.58-40.35C54.78 120.77 51 103.26 51 90.5 51 46.04 83.04 14 127.5 14S204 46.04 204 90.5"/></svg>