<svg xmlns="http://www.w3.org/2000/svg" width="256" height="256" fill="currentColor"><path d="M160.125 193.025c3.84 0 7.037 3.198 7.038 7.038 0 3.84-3.198 7.037-7.038 7.037h-64c-3.839-.001-7.037-3.198-7.037-7.037s3.199-7.037 7.037-7.038z"/><path  fill-rule="evenodd" d="M128.125 40.963c34.816 0 63.1 28.286 63.1 62.975-.001 34.687-28.413 62.975-63.1 62.975-34.687-.001-62.974-28.289-62.975-62.975 0-34.688 28.16-62.975 62.975-62.976m-15.875 71.162c1.024 11.008 4.481 21.253 10.113 30.213a68 68 0 0 0 5 6.912l.762.888.775-.888c1.919-2.303 3.452-4.609 4.988-6.912 5.504-8.96 8.96-19.205 10.112-30.213h.125V111.1H112.25zM158.2 112c-1.024 12.672-4.731 24.448-10.875 35.2l-1.537 2.563 2.687-1.288c14.848-6.784 25.225-20.35 27.913-36.35l.25.125v-1.15H158.2zm-78.325.125c2.688 16 13.18 29.566 27.9 36.35l-.125-.125 2.688 1.288-1.538-2.563c-6.015-10.623-9.735-22.529-10.888-35.2v-.9h-18.3zm47.488-53.25a68 68 0 0 0-5 6.912c-5.632 9.088-8.958 19.205-10.238 30.213v1.025H144V96c-1.024-11.136-4.48-21.252-10.112-30.213a68 68 0 0 0-4.988-6.912l-.775-.888zm20.087 2.05c6.016 10.624 9.735 22.529 10.888 35.2v.9h18.175V96c-2.688-16-13.193-29.566-27.913-36.35l-2.687-1.288zm-39.675-1.4c-14.847 6.784-25.212 20.35-27.9 36.35l-.263-.138V96.9H98.05V96c1.152-12.672 4.731-24.576 10.875-35.2l1.538-2.562z" clip-rule="evenodd"/><path  fill-rule="evenodd" d="M203.775 8.963c9.598 0 15.485 8.44 15.488 16.375V230.65c0 7.936-5.888 16.387-15.488 16.388H52.612c-9.6 0-15.5-8.452-15.5-16.388V25.338c.003-7.935 5.903-16.375 15.5-16.375zm-151.3 14.075-.513.387c-.13.258-.635.896-.637 1.912v205.451c.002.981.59 1.845.637 1.912l.388.388h151.938l.25-.513c.128-.256.65-.901.65-1.925V25.338c-.003-.997-.739-1.989-.775-2.038l-.25-.262z" clip-rule="evenodd"/></svg>