<svg xmlns="http://www.w3.org/2000/svg" fill="none" viewBox="0 0 256 256"><g fill="currentColor" fill-rule="evenodd" clip-path="url(#clip0_5280_20762)" clip-rule="evenodd"><path d="M107.24 71.22A8 8 0 0 0 95 78v100a8 8 0 0 0 12.24 6.79l80-50a8 8 0 0 0 0-13.57zM167.91 128 111 163.57V92.44z"/><path d="M128 0C57.3 0 0 57.3 0 128s57.3 128 128 128 128-57.3 128-128S198.7 0 128 0M16 128C16 66.14 66.14 16 128 16s112 50.14 112 112-50.14 112-112 112S16 189.86 16 128"/></g><defs><clipPath id="clip0_5280_20762"><path fill="currentColor" d="M0 0h256v256H0z"/></clipPath></defs></svg>