<svg xmlns="http://www.w3.org/2000/svg" width="256" height="256" fill="currentColor"><path d="M107 111.2c5.523 0 10 4.477 10 10s-4.477 10-10 10-10-4.477-10-10 4.477-10 10-10"/><path fill-rule="evenodd" d="M212 51.2c8.837 0 16 7.163 16 16v101l-.087 1.637c-.821 8.068-7.629 14.363-15.913 14.363H85.988L72 218.775l-.388.725a4.01 4.01 0 0 1-4.075 1.7l-.787-.238-3.625-1.512a4.004 4.004 0 0 1-2.138-5.263l12.9-29.987H44l-1.638-.088c-7.528-.765-13.509-6.746-14.275-14.275L28 168.2v-101c0-8.284 6.295-15.092 14.362-15.913L44 51.2zM58.35 155.275c-3.435-3.431-9.455-4.097-14.35-.8V168.2h15.975c2.312-4.596 1.483-9.817-1.625-12.925M76.725 67.2c1.736 8.513-.428 17.615-7.062 24.25-7.009 7.001-16.755 8.999-25.663 6.7v39.087c8.91-2.298 18.655-.279 25.662 6.725 6.635 6.635 8.799 15.725 7.063 24.238h4.038l14.2-33.025a4 4 0 0 1 5.212-2.113l1.925.8a4.005 4.005 0 0 1 2.163 5.188l-11.8 29.15h7.675c1.33-14.852 12.418-28 27.862-28s26.532 13.148 27.863 28h23.85c-1.739-8.515.413-17.614 7.05-24.25 6.895-6.891 16.446-8.95 25.237-6.825V98.263c-8.792 2.125-18.341.079-25.237-6.813-6.637-6.636-8.789-15.735-7.05-24.25h-23.85c-1.331 14.852-12.419 28-27.863 28s-26.532-13.148-27.862-28zm51.275 89c-4.986 0-10.573 4.442-11.762 12h23.525c-1.19-7.558-6.777-12-11.763-12m84-1.988c-4.814-2.985-10.587-2.282-13.925 1.05-3.109 3.109-3.939 8.341-1.625 12.938H212zm-168-73.3c4.896 3.302 10.913 2.645 14.35-.787 3.108-3.109 3.938-8.33 1.625-12.925H44zM196.45 67.2c-2.314 4.597-1.484 9.828 1.625 12.938 3.339 3.333 9.11 4.027 13.925 1.037V67.2zm-80.212 0c1.189 7.558 6.776 12 11.762 12s10.573-4.442 11.763-12z" clip-rule="evenodd"/></svg>