<svg xmlns="http://www.w3.org/2000/svg" fill="none" viewBox="0 0 256 256"><path fill="currentColor" d="M220 83.06a102 102 0 0 0-28.97-35.8 103 103 0 0 0-41.8-19.42 102 102 0 0 0-46.08.84 103 103 0 0 0-41.06 20.89 102.6 102.6 0 0 0-27.72 36.75 105 105 0 0 0-8.71 45.25 102 102 0 0 0 11.97 44.52L26.5 209.6a16 16 0 0 0-.42 8.6 15.5 15.5 0 0 0 4.2 7.56c2.1 2.1 4.62 3.57 7.56 4.2s5.77.53 8.6-.41l33.5-11.13a103 103 0 0 0 50.71 11.97 101.7 101.7 0 0 0 50.09-14.6 103 103 0 0 0 36.43-37.38A102 102 0 0 0 230.4 128c0-15.54-3.57-30.87-10.4-44.83zm-17 88.2a86.7 86.7 0 0 1-31.71 31.71 87.3 87.3 0 0 1-43.37 11.55 86.3 86.3 0 0 1-43.36-11.65 7.3 7.3 0 0 0-3.99-1.05c-.84 0-1.68.1-2.52.42L41.2 214.52l12.28-36.85c.32-1.05.53-2.2.32-3.26a6.6 6.6 0 0 0-1.05-3.15 86.7 86.7 0 0 1-5.04-76.54A87 87 0 0 1 70.6 62.69a87.5 87.5 0 0 1 34.65-18.58 85.6 85.6 0 0 1 39.26-1.26 86.9 86.9 0 0 1 60.8 46.72 86 86 0 0 1 8.92 38.33 86.4 86.4 0 0 1-11.65 43.36z"/><path fill="currentColor" d="M121.63 160.87a12 12 0 0 0-4.3 5.25 11.3 11.3 0 0 0-.64 6.72 11.5 11.5 0 0 0 9.03 9.03 12.7 12.7 0 0 0 6.72-.63 10.8 10.8 0 0 0 5.15-4.3 11.5 11.5 0 0 0-1.37-14.6 11.9 11.9 0 0 0-14.6-1.47m6.41-86.94c-21.21 0-38.43 15.23-38.43 33.91 0 1.9.74 3.68 2.1 5.04a7.33 7.33 0 0 0 10.08 0 7 7 0 0 0 2.1-5.03c0-10.93 10.92-19.74 24.25-19.74s24.26 8.81 24.26 19.74c0 10.91-10.92 19.73-24.26 19.73a7 7 0 0 0-5.04 2.1 7 7 0 0 0-2.1 5.04v8.93a7 7 0 0 0 2.1 5.04 7.07 7.07 0 0 0 10.08 0 7 7 0 0 0 2.1-5.04v-2.42c18.06-2.94 31.3-17 31.3-33.38 0-18.7-17.23-33.92-38.44-33.92z"/></svg>