<svg xmlns="http://www.w3.org/2000/svg" fill="none" viewBox="0 0 256 256"><path fill="currentColor" d="M87.76 55.03a8 8 0 1 1 14.85 5.94L75.2 129.48l24.44 61.1 5.57-2.23a8 8 0 0 1 5.95 14.87l-5.57 2.22 8.91 22.29a8 8 0 0 1-14.85 5.94l-8.91-22.29-5.58 2.24a8 8 0 0 1-5.94-14.87l5.57-2.23-18.2-45.5-18.2 45.5 5.57 2.23a8 8 0 0 1-5.94 14.87l-5.58-2.24-8.9 22.29a8 8 0 1 1-14.85-5.94l8.9-22.29-5.57-2.22a8 8 0 0 1 5.96-14.87l5.56 2.23 24.44-61.1-27.4-68.51a8 8 0 1 1 14.85-5.94l21.16 52.93zM205 223h12.5v-57.5H205zm-60 0h12.5v-57.5H145zm60-73.5h12.5v-22H205zm-60 0h12.5v-22H145zM205 64v47.5h12.5V64l-6.25-16.23zm-60 0v47.5h12.5V64l-6.25-16.23zm28.5 163a12 12 0 0 1-12 12H141a12 12 0 0 1-12-12V63.25a12 12 0 0 1 .8-4.31l10.25-26.61c3.7-9.61 16.68-10.21 21.54-1.8l.86 1.8 10.25 26.61a12 12 0 0 1 .8 4.31zm60 0a12 12 0 0 1-12 12H201a12 12 0 0 1-12-12V63.25a12 12 0 0 1 .8-4.31l10.25-26.61c3.7-9.61 16.68-10.21 21.54-1.8l.86 1.8 10.25 26.61a12 12 0 0 1 .8 4.31z"/></svg>