<svg xmlns="http://www.w3.org/2000/svg" fill="none" viewBox="0 0 256 256"><path fill="currentColor" d="M88.62 49.3a88 88 0 0 1 53.98-8.08 8 8 0 0 0 2.66-15.78 104 104 0 1 0 85.3 85.3 8 8 0 0 0-15.78 2.66A88 88 0 1 1 88.62 49.3"/><path fill="currentColor" d="M196.33 24a8 8 0 0 1 8 8v16h16a8 8 0 0 1 0 16h-16v16a8 8 0 0 1-16 0V64h-16a8 8 0 1 1 0-16h16V32a8 8 0 0 1 8-8M104 108a12 12 0 1 1-24 0 12 12 0 0 1 24 0m-9.07 40a8 8 0 0 0-13.85 8c9.5 16.45 25.88 28 46.92 28s37.41-11.55 46.93-28a8 8 0 0 0-13.86-8C154 160.24 142.5 168 128 168s-25.98-7.75-33.07-20M164 120a12 12 0 1 0 0-24 12 12 0 0 0 0 24"/></svg>