<svg xmlns="http://www.w3.org/2000/svg" fill="none" viewBox="0 0 256 256"><path fill="currentColor" d="M227 175.12a21.04 21.04 0 0 0-21-21.02h-50.97v-38.49a28 28 0 0 1 9.8 5q.55.41 1.15.74l.17.1q.54.27 1.1.47l.13.03q.5.17 1 .25l.3.05q.58.09 1.15.1h.02q.4-.01.79-.05l.25-.03.56-.09.28-.06q.26-.06.53-.15l.27-.09q.36-.13.7-.29l.23-.12.8-.47.4-.29.27-.2.1-.1c17.4-14.9 36.3-.43 37.08.17a8 8 0 0 0 8.4 1 8 8 0 0 0 4.6-7.12c.02-1.33.27-32.86-21.62-55.1-13.68-13.9-32.67-20.95-56.45-20.96-23.78 0-42.77 7.05-56.45 20.96-21.9 22.25-21.64 53.77-21.62 55.1a8 8 0 0 0 12.96 6.15c.8-.62 19.7-15.1 37.1-.2a8 8 0 0 0 9.25.81q.3-.16.57-.37l.1-.07c.36-.25 4.3-3.05 10.09-4.78v38.08H95.97l-34.44-32.3a21 21 0 0 0-14.65-6.2 21.04 21.04 0 0 0-15.32 35.69l.2.21 44.54 42.43a8 8 0 0 0 5.48 2.21v2.8c0 9.02 7.34 16.36 16.36 16.36s16.36-7.34 16.36-16.36v-2.8h65.27v2.8c0 9.02 7.34 16.36 16.36 16.36s16.36-7.34 16.36-16.36v-3.85a21.05 21.05 0 0 0 14.5-19.98zm-35-104.6c9.08 9.17 13.35 20.78 15.35 29.73a48 48 0 0 0-15.04-2.55c-4.1 0-8.34.6-12.62 1.98a73.3 73.3 0 0 0-12.6-42.94c10 2.53 18.34 7.13 24.9 13.77M147.02 57.2a59 59 0 0 1 16.53 44.41 42 42 0 0 0-15.64-2.9 9 9 0 0 0-2.15.05 50 50 0 0 0-15.24 3.26 59 59 0 0 1 16.5-44.82M86.7 100.25c2-8.95 6.27-20.56 15.35-29.74 6.57-6.64 14.9-11.24 24.9-13.77a73.3 73.3 0 0 0-12.58 42.94c-9.91-3.22-19.64-2.13-27.67.57m-43.75 39.8a5.04 5.04 0 0 1 3.73-8.46 5 5 0 0 1 3.53 1.51l.26.25 36.86 34.57a8 8 0 0 0 5.47 2.17h113.19a5.02 5.02 0 0 1 0 10.04H85.03z"/></svg>