<svg xmlns="http://www.w3.org/2000/svg" width="256" height="256" fill="currentColor"><path  d="M58.521 84.272a11.7 11.7 0 0 1 8.275 3.437 11.7 11.7 0 0 1 3.438 8.275c0 2.316-.689 4.587-1.975 6.513a11.725 11.725 0 0 1-12.025 4.975 11.7 11.7 0 0 1-5.988-3.213 11.7 11.7 0 0 1-3.212-5.987c-.452-2.271-.21-4.624.675-6.763a11.73 11.73 0 0 1 4.312-5.263 11.7 11.7 0 0 1 6.5-1.974"/><path  fill-rule="evenodd" d="m52.109 2.284 88.462 18.813a15.5 15.5 0 0 1 5.6 2.387 15.5 15.5 0 0 1 4.25 4.375l74.625 114.925a15.628 15.628 0 0 1 2.188 11.75 15.66 15.66 0 0 1-6.775 9.85l-6.05 3.913c-.152.165-.291.353-.45.512l-82.625 82.613a15.6 15.6 0 0 1-5.063 3.387 15.61 15.61 0 0 1-17.012-3.387l-96.9-96.888a15.5 15.5 0 0 1-3.4-5.062 15.5 15.5 0 0 1-1.175-5.975V53.059a7.808 7.808 0 0 1 7.8-7.812h19.425l7.85-36.95a7.8 7.8 0 0 1 3.375-4.913 7.83 7.83 0 0 1 5.875-1.1m68.187 238.113 82.625-82.638-.375-.387-96.512-96.513H23.396v82.638zM50.959 45.247h55.075a15.5 15.5 0 0 1 5.975 1.187 15.5 15.5 0 0 1 5.05 3.388l82.737 82.737-62.462-96.2-80.838-17.175z" clip-rule="evenodd"/></svg>