<svg fill="currentColor" xmlns="http://www.w3.org/2000/svg" viewBox="0 0 256 256"><path fill-rule="evenodd" clip-rule="evenodd" d="m212 23-3 7 3-7a8 8 0 0 1 0 15c-12 5-23 12-32 19 12-1 22 2 31 7a93 93 0 0 1 34 33 98 98 0 0 1 3 4v1l-7 3 7-3a8 8 0 0 1-10 11c-16-5-32-7-46-7 14 8 22 21 25 33a93 93 0 0 1 0 48 97 97 0 0 1-2 5l-7-2 7 2a8 8 0 0 1-15 1 165 165 0 0 0-57-64l-5 24c-2 20-2 44 7 66a8 8 0 0 1-7 11H76a8 8 0 0 1-8-9l8 1-8-1v-1a138 138 0 0 1 2-12c1-7 3-18 7-30 5-17 14-38 29-55H91c-20 1-47 5-73 18a8 8 0 0 1-11-9l7 2-7-2v-1a65 65 0 0 1 2-4l5-11c5-9 12-20 22-28 9-6 19-11 30-12-11-6-23-12-37-16a8 8 0 0 1-2-14l4 7-4-7v-1a62 62 0 0 1 4-2l12-4c9-3 22-6 35-5a51 51 0 0 1 42 24l5-13c8-15 21-22 34-25a93 93 0 0 1 48 1 96 96 0 0 1 4 2h1Zm-97 71c-2-14-6-24-11-31-7-9-17-13-27-13-8-1-16 0-23 2a190 190 0 0 1 61 42Zm11 32c-17 13-27 36-34 57a228 228 0 0 0-7 31h42c-7-22-7-45-5-63a212 212 0 0 1 4-25Zm25-12a209 209 0 0 1 53 53c0-8 0-16-2-23-3-10-8-19-18-24-8-4-18-6-33-6Zm-4-19c10-11 19-17 26-20 11-4 21-2 30 3 7 4 13 9 18 14a190 190 0 0 0-74 3Zm-14-10a209 209 0 0 1 53-51c-7-1-16-1-23 1-10 2-19 8-24 18-4 7-7 17-6 32Zm-29 22a210 210 0 0 0-73 11c4-6 9-12 15-17 8-7 18-10 29-8 8 1 18 5 29 14Z"/></svg>